<svg viewBox="0 0 1457 400" xmlns="http://www.w3.org/2000/svg"><g><g><g><g><g><line x1="41.171875" y1="377" x2="36.171875" y2="377" style="visibility: inherit;" fill="rgb(0, 0, 0)" stroke="rgb(204, 204, 204)" stroke-width="1px"></line><line x1="41.171875" y1="339.3" x2="36.171875" y2="339.3" style="visibility: inherit;" fill="rgb(0, 0, 0)" stroke="rgb(204, 204, 204)" stroke-width="1px"></line><line x1="41.171875" y1="301.6" x2="36.171875" y2="301.6" style="visibility: inherit;" fill="rgb(0, 0, 0)" stroke="rgb(204, 204, 204)" stroke-width="1px"></line><line x1="41.171875" y1="263.9" x2="36.171875" y2="263.9" style="visibility: inherit;" fill="rgb(0, 0, 0)" stroke="rgb(204, 204, 204)" stroke-width="1px"></line><line x1="41.171875" y1="226.2" x2="36.171875" y2="226.2" style="visibility: inherit;" fill="rgb(0, 0, 0)" stroke="rgb(204, 204, 204)" stroke-width="1px"></line><line x1="41.171875" y1="188.5" x2="36.171875" y2="188.5" style="visibility: inherit;" fill="rgb(0, 0, 0)" stroke="rgb(204, 204, 204)" stroke-width="1px"></line><line x1="41.171875" y1="150.8" x2="36.171875" y2="150.8" style="visibility: inherit;" fill="rgb(0, 0, 0)" stroke="rgb(204, 204, 204)" stroke-width="1px"></line><line x1="41.171875" y1="113.10000000000002" x2="36.171875" y2="113.10000000000002" style="visibility: inherit;" fill="rgb(0, 0, 0)" stroke="rgb(204, 204, 204)" stroke-width="1px"></line><line x1="41.171875" y1="75.39999999999998" x2="36.171875" y2="75.39999999999998" style="visibility: inherit;" fill="rgb(0, 0, 0)" stroke="rgb(204, 204, 204)" stroke-width="1px"></line><line x1="41.171875" y1="37.69999999999999" x2="36.171875" y2="37.69999999999999" style="visibility: inherit;" fill="rgb(0, 0, 0)" stroke="rgb(204, 204, 204)" stroke-width="1px"></line><line x1="41.171875" y1="0" x2="36.171875" y2="0" style="visibility: inherit;" fill="rgb(0, 0, 0)" stroke="rgb(204, 204, 204)" stroke-width="1px"></line></g><g transform="translate(31.171875, 0)"><text x="0" y="377" dx="0em" dy="0.3em" style="text-anchor: end; visibility: hidden; font-family: Roboto, sans-serif; font-size: 12px; font-weight: 200;" fill="rgb(255, 255, 255)" stroke="none" stroke-width="1px">-10</text><text x="0" y="339.3" dx="0em" dy="0.3em" style="text-anchor: end; visibility: inherit; font-family: Roboto, sans-serif; font-size: 12px; font-weight: 200;" fill="rgb(255, 255, 255)" stroke="none" stroke-width="1px">0</text><text x="0" y="301.6" dx="0em" dy="0.3em" style="text-anchor: end; visibility: inherit; font-family: Roboto, sans-serif; font-size: 12px; font-weight: 200;" fill="rgb(255, 255, 255)" stroke="none" stroke-width="1px">10</text><text x="0" y="263.9" dx="0em" dy="0.3em" style="text-anchor: end; visibility: inherit; font-family: Roboto, sans-serif; font-size: 12px; font-weight: 200;" fill="rgb(255, 255, 255)" stroke="none" stroke-width="1px">20</text><text x="0" y="226.2" dx="0em" dy="0.3em" style="text-anchor: end; visibility: inherit; font-family: Roboto, sans-serif; font-size: 12px; font-weight: 200;" fill="rgb(255, 255, 255)" stroke="none" stroke-width="1px">30</text><text x="0" y="188.5" dx="0em" dy="0.3em" style="text-anchor: end; visibility: inherit; font-family: Roboto, sans-serif; font-size: 12px; font-weight: 200;" fill="rgb(255, 255, 255)" stroke="none" stroke-width="1px">40</text><text x="0" y="150.8" dx="0em" dy="0.3em" style="text-anchor: end; visibility: inherit; font-family: Roboto, sans-serif; font-size: 12px; font-weight: 200;" fill="rgb(255, 255, 255)" stroke="none" stroke-width="1px">50</text><text x="0" y="113.10000000000002" dx="0em" dy="0.3em" style="text-anchor: end; visibility: inherit; font-family: Roboto, sans-serif; font-size: 12px; font-weight: 200;" fill="rgb(255, 255, 255)" stroke="none" stroke-width="1px">60</text><text x="0" y="75.39999999999998" dx="0em" dy="0.3em" style="text-anchor: end; visibility: inherit; font-family: Roboto, sans-serif; font-size: 12px; font-weight: 200;" fill="rgb(255, 255, 255)" stroke="none" stroke-width="1px">70</text><text x="0" y="37.69999999999999" dx="0em" dy="0.3em" style="text-anchor: end; visibility: inherit; font-family: Roboto, sans-serif; font-size: 12px; font-weight: 200;" fill="rgb(255, 255, 255)" stroke="none" stroke-width="1px">80</text><text x="0" y="0" dx="0em" dy="0.3em" style="text-anchor: end; visibility: hidden; font-family: Roboto, sans-serif; font-size: 12px; font-weight: 200;" fill="rgb(255, 255, 255)" stroke="none" stroke-width="1px">90</text></g><line x1="41.171875" y1="0" x2="41.171875" y2="377" fill="rgb(0, 0, 0)" stroke="rgb(204, 204, 204)" stroke-width="1px"></line></g></g><g transform="translate(41, 0)" clip-path="url(#clip_0)"><clipPath id="clip_0"><rect width="1415" height="377"></rect></clipPath><g><g><g><line x1="0" y1="0" x2="0" y2="377" fill="rgb(0, 0, 0)" stroke="rgb(189, 189, 189)" stroke-width="1px" opacity="0.25"></line><line x1="141.58281250000002" y1="0" x2="141.58281250000002" y2="377" fill="rgb(0, 0, 0)" stroke="rgb(189, 189, 189)" stroke-width="1px" opacity="0.25"></line><line x1="283.16562500000003" y1="0" x2="283.16562500000003" y2="377" fill="rgb(0, 0, 0)" stroke="rgb(189, 189, 189)" stroke-width="1px" opacity="0.25"></line><line x1="424.74843749999997" y1="0" x2="424.74843749999997" y2="377" fill="rgb(0, 0, 0)" stroke="rgb(189, 189, 189)" stroke-width="1px" opacity="0.25"></line><line x1="566.3312500000001" y1="0" x2="566.3312500000001" y2="377" fill="rgb(0, 0, 0)" stroke="rgb(189, 189, 189)" stroke-width="1px" opacity="0.25"></line><line x1="707.9140625" y1="0" x2="707.9140625" y2="377" fill="rgb(0, 0, 0)" stroke="rgb(189, 189, 189)" stroke-width="1px" opacity="0.25"></line><line x1="849.4968749999999" y1="0" x2="849.4968749999999" y2="377" fill="rgb(0, 0, 0)" stroke="rgb(189, 189, 189)" stroke-width="1px" opacity="0.25"></line><line x1="991.0796875" y1="0" x2="991.0796875" y2="377" fill="rgb(0, 0, 0)" stroke="rgb(189, 189, 189)" stroke-width="1px" opacity="0.25"></line><line x1="1132.6625000000001" y1="0" x2="1132.6625000000001" y2="377" fill="rgb(0, 0, 0)" stroke="rgb(189, 189, 189)" stroke-width="1px" opacity="0.25"></line><line x1="1274.2453125" y1="0" x2="1274.2453125" y2="377" fill="rgb(0, 0, 0)" stroke="rgb(189, 189, 189)" stroke-width="1px" opacity="0.25"></line><line x1="1415.828125" y1="0" x2="1415.828125" y2="377" fill="rgb(0, 0, 0)" stroke="rgb(189, 189, 189)" stroke-width="1px" opacity="0.25"></line></g><g><line x1="0" y1="377" x2="1415.828125" y2="377" fill="rgb(0, 0, 0)" stroke="rgb(189, 189, 189)" stroke-width="1px" opacity="0.25"></line><line x1="0" y1="339.3" x2="1415.828125" y2="339.3" fill="rgb(0, 0, 0)" stroke="rgb(189, 189, 189)" stroke-width="1px" opacity="0.25"></line><line x1="0" y1="301.6" x2="1415.828125" y2="301.6" fill="rgb(0, 0, 0)" stroke="rgb(189, 189, 189)" stroke-width="1px" opacity="0.25"></line><line x1="0" y1="263.9" x2="1415.828125" y2="263.9" fill="rgb(0, 0, 0)" stroke="rgb(189, 189, 189)" stroke-width="1px" opacity="0.25"></line><line x1="0" y1="226.2" x2="1415.828125" y2="226.2" fill="rgb(0, 0, 0)" stroke="rgb(189, 189, 189)" stroke-width="1px" opacity="0.25"></line><line x1="0" y1="188.5" x2="1415.828125" y2="188.5" fill="rgb(0, 0, 0)" stroke="rgb(189, 189, 189)" stroke-width="1px" opacity="0.25"></line><line x1="0" y1="150.8" x2="1415.828125" y2="150.8" fill="rgb(0, 0, 0)" stroke="rgb(189, 189, 189)" stroke-width="1px" opacity="0.25"></line><line x1="0" y1="113.10000000000002" x2="1415.828125" y2="113.10000000000002" fill="rgb(0, 0, 0)" stroke="rgb(189, 189, 189)" stroke-width="1px" opacity="0.25"></line><line x1="0" y1="75.39999999999998" x2="1415.828125" y2="75.39999999999998" fill="rgb(0, 0, 0)" stroke="rgb(189, 189, 189)" stroke-width="1px" opacity="0.25"></line><line x1="0" y1="37.69999999999999" x2="1415.828125" y2="37.69999999999999" fill="rgb(0, 0, 0)" stroke="rgb(189, 189, 189)" stroke-width="1px" opacity="0.25"></line><line x1="0" y1="0" x2="1415.828125" y2="0" fill="rgb(0, 0, 0)" stroke="rgb(189, 189, 189)" stroke-width="1px" opacity="0.25"></line></g></g></g><g><g><line x1="0" y1="339.3" x2="1415.828125" y2="339.3" fill="rgb(0, 0, 0)" stroke="rgb(153, 153, 153)" stroke-width="1.5px"></line></g></g><g><g><line x1="141.58281250000002" y1="0" x2="141.58281250000002" y2="377" fill="rgb(0, 0, 0)" stroke="rgb(153, 153, 153)" stroke-width="1.5px"></line></g></g><g><g><g><g><g><path stroke="rgb(204, 51, 17)" stroke-width="2px" d="M1065.0142321875,320.45L1065.3823475000002,286.52L1065.552246875,305.37L1066.005311875,316.68L1066.061945,297.83000000000004L1066.1468946875,305.37L1066.458376875,324.21999999999997L1066.8831253125,312.90999999999997L1066.968075,335.53000000000003L1067.53440625,316.68L1067.7609387500002,324.21999999999997L1067.874205,290.29L1068.44053625,229.97L1069.2617165625,324.21999999999997L1069.34666625,282.75L1069.6015153125,305.37L1069.9129975,324.21999999999997L1070.0545803125,339.3L1070.1112134375,320.45L1070.25279625,275.21L1071.3571421875001,327.99L1071.4987250000001,335.53000000000003L1071.9234734375,331.76L1072.0933728125,263.9L1072.2349556249999,335.53000000000003L1072.4331715625,312.90999999999997L1072.6030709375,316.68L1073.141085625,335.53000000000003L1073.5941506249999,339.3L1073.65078375,327.99L1073.8773162500001,305.37L1074.217115,297.83000000000004L1074.4719640625,297.83000000000004L1074.6984965625,339.3L1075.1515615625,324.21999999999997L1075.2648278125,309.14000000000004L1076.7939221875,294.06L1076.82223875,286.52L1077.3036203125,199.81L1077.3885699999998,327.99L1077.4735196875001,297.83000000000004L1077.898268125,278.98L1077.9832178125,297.83000000000004L1078.0115343749999,324.21999999999997L1078.2947000000001,339.3L1078.7760815625,290.29L1078.8327146875,290.29L1079.4273624999998,256.35999999999996L1079.9087440624999,309.14000000000004L1080.0503268749999,271.44L1080.8148740625,331.76L1081.0980396875,263.9L1081.2679390625,278.98L1081.4661549999998,260.13L1081.4944715625,339.3L1081.91922,275.21L1082.4289181249999,237.51L1082.48555125,312.90999999999997L1082.82535,286.52L1083.0235659374998,297.83000000000004L1083.0518825,327.99L1083.108515625,256.35999999999996L1083.1934653125,327.99L1083.2500984375,316.68L1083.5898971875001,282.75L1083.8730628125,282.75L1084.2128615625,320.45L1084.354444375,335.53000000000003L1085.090675,233.74L1085.20394125,294.06L1085.3172075,297.83000000000004L1085.3455240625,324.21999999999997L1085.5437399999998,286.52L1085.7985890625,256.35999999999996L1085.9118553125,335.53000000000003L1086.0251215624999,162.11L1086.1667043749999,211.12000000000003L1086.279970625,331.76L1086.5348196875,241.28L1086.6480859375,282.75L1086.7047190625,316.68L1086.7613521875,214.89000000000001L1086.959568125,278.98L1087.1011509374998,327.99L1087.1577840625,335.53000000000003L1087.299366875,320.45L1087.356,327.99L1087.46926625,320.45L1087.5825324999998,339.3L1087.752431875,309.14000000000004L1087.7807484375,339.3L1088.432029375,339.3L1088.5452956249999,335.53000000000003L1089.4797421875,278.98L1089.677958125,286.52L1089.8478575,305.37L1090.2442893749999,327.99L1090.357555625,320.45L1090.5557715625,327.99L1090.6124046875,271.44L1090.7823040625,312.90999999999997L1090.8389371875,331.76L1091.2353690625,286.52L1091.263685625,301.6L1091.54685125,324.21999999999997L1091.6318009375,324.21999999999997L1091.88665,312.90999999999997L1091.9999162499998,275.21L1092.1131825,331.76L1092.3680315625,263.9L1092.396348125,331.76L1092.5662475000001,305.37L1092.5945640625,267.66999999999996L1092.736146875,180.95999999999998L1093.245845,320.45L1093.3307946875,305.37L1093.58564375,305.37L1094.435140625,290.29L1094.8032559375,301.6L1094.9731553125,260.13L1095.058105,278.98L1095.114738125,327.99L1095.228004375,339.3L1095.39790375,335.53000000000003L1095.5394865625,286.52L1095.8226521875,327.99L1095.9925515625,252.58999999999997L1096.134134375,327.99L1096.4173,260.13L1096.5588828124999,286.52L1097.606595625,309.14000000000004L1097.719861875,305.37L1097.7481784375,316.68L1097.776495,241.28L1098.286193125,294.06L1098.625991875,327.99L1098.6543084375,309.14000000000004L1098.8242078125,290.29L1099.0224237500001,327.99L1099.758654375,327.99L1100.098453125,192.27L1100.4099353125,245.05L1100.494885,260.13L1100.5798346875001,324.21999999999997L1101.1461659375,335.53000000000003L1101.3160653125,324.21999999999997L1101.51428125,309.14000000000004L1101.684180625,312.90999999999997L1102.137245625,339.3L1102.2221953125,324.21999999999997L1102.5336775,320.45L1102.6186271875001,245.05L1102.703576875,309.14000000000004L1102.7318934375,312.90999999999997L1104.0910884375,312.90999999999997L1104.176038125,211.12000000000003L1104.2609878125,297.83000000000004L1104.289304375,316.68L1104.91226875,331.76L1105.2520675,324.21999999999997L1105.308700625,331.76L1105.421966875,222.43000000000004L1105.5352331249999,327.99L1105.648499375,301.6L1106.3564134375,301.6L1106.38473,278.98L1106.6962121875001,309.14000000000004L1106.9227446875,312.90999999999997L1107.0360109375001,275.21L1107.0926440624999,312.90999999999997L1107.5740256249999,252.58999999999997L1107.9987740625002,339.3L1108.1120403125,294.06L1108.819954375,305.37L1109.2730193749999,324.21999999999997L1109.3013359375,335.53000000000003L1109.726084375,67.86000000000001L1109.839350625,339.3L1110.292415625,162.11L1110.3207321875,339.3L1110.6888474999998,339.3L1110.9436965625,237.51L1111.085279375,335.53000000000003L1111.2268621875,339.3L1111.3118118749999,312.90999999999997L1111.4533946875001,237.51L1111.538344375,339.3L1111.878143125,237.51L1112.104675625,339.3L1112.3028915625,335.53000000000003L1112.5011075,335.53000000000003L1112.7559565625,320.45L1112.8692228125,320.45L1112.9258559375,320.45L1112.9824890625,316.68L1113.06743875,233.74L1113.2656546875,252.58999999999997L1113.52050375,327.99L1113.803669375,294.06L1113.916935625,309.14000000000004L1113.9735687500001,312.90999999999997L1114.0585184375,324.21999999999997L1114.20010125,290.29L1114.2850509375,309.14000000000004L1114.3133675,309.14000000000004L1114.3416840625,339.3L1114.87969875,248.81999999999996L1115.1345478125,335.53000000000003L1115.3044471875,256.35999999999996L1115.502663125,305.37L1115.5309796875001,335.53000000000003L1115.78582875,290.29L1115.9840446875,263.9L1116.5786925,305.37L1116.69195875,294.06L1116.975124375,335.53000000000003L1117.088390625,267.66999999999996L1117.3432396875,316.68L1117.7113550000001,327.99L1117.7963046875,309.14000000000004L1117.9662040625,324.21999999999997L1118.0228371875,335.53000000000003L1118.9856003125,218.66000000000003L1119.1554996875,286.52L1119.63688125,260.13L1119.693514375,267.66999999999996L1119.920046875,331.76L1120.0049965625,278.98L1120.0616296875,324.21999999999997L1120.5713278125002,339.3L1120.9677596875,335.53000000000003L1121.0243928125,309.14000000000004L1121.5340909375,309.14000000000004L1121.6473571875001,335.53000000000003L1121.8738896875,331.76L1122.35527125,339.3L1122.5251706249999,294.06L1123.204768125,316.68L1123.544566875,335.53000000000003L1123.5728834375,335.53000000000003L1123.657833125,312.90999999999997L1123.6861496875001,331.76L1123.7427828124999,320.45L1123.7994159375,275.21L1123.9126821875,305.37L1124.0259484375001,226.2L1124.2241643749999,327.99L1124.6489128125002,275.21L1125.6116759375,290.29L1125.7249421875001,237.51L1125.7815753124999,312.90999999999997L1125.9231581249999,312.90999999999997L1126.1780071875,192.27L1126.5178059375,316.68L1126.8009715625,331.76L1126.8576046875,309.14000000000004L1126.9142378125,331.76L1126.942554375,335.53000000000003L1127.055820625,339.3L1127.1407703125,316.68L1127.3673028125,271.44L1127.4805690625,316.68L1127.8770009375,339.3L1128.0469003125,297.83000000000004L1128.188483125,245.05L1128.2167996875,312.90999999999997L1128.2734328125,312.90999999999997L1128.3583825,305.37L1128.47164875,294.06L1128.4999653125,301.6L1128.69818125,316.68L1128.7831309375,196.04000000000002L1128.92471375,233.74L1129.4627284375001,339.3L1129.7458940625,305.37L1129.9157934375,312.90999999999997L1130.0856928125,331.76L1130.1989590624999,256.35999999999996L1130.5387578125,278.98L1130.567074375,312.90999999999997L1131.2749884375,229.97L1131.5298375,199.81L1132.0112190625,245.05L1132.5209171875001,278.98L1132.54923375,294.06L1132.605866875,324.21999999999997L1132.8890325,320.45L1133.00229875,278.98L1133.5403134375,312.90999999999997L1133.851795625,331.76L1134.078328125,229.97L1134.2482275,324.21999999999997L1134.2765440624999,286.52L1134.3331771875,331.76L1134.3898103125,316.68L1134.531393125,165.87999999999997L1135.2393071875,335.53000000000003L1135.26762375,327.99L1135.550789375,256.35999999999996L1135.6074225,335.53000000000003L1135.7490053125,290.29L1136.1454371875,233.74L1136.3153365624999,309.14000000000004L1136.570185625,286.52L1136.9949340625,301.6L1137.1082003125,327.99L1137.1648334375,275.21L1137.53294875,335.53000000000003L1137.8727474999998,339.3L1138.21254625,278.98L1138.4957118749999,324.21999999999997L1138.66561125,282.75L1139.1469928125,305.37L1139.3168921875,301.6L1139.34520875,316.68L1139.57174125,324.21999999999997L1139.7416406250002,188.5L1139.9115399999998,263.9L1140.0531228125,327.99L1140.70440375,305.37L1140.9026196875,256.35999999999996L1141.0442025,147.03L1141.4123178125,309.14000000000004L1141.61053375,267.66999999999996L1142.0352821875001,294.06L1142.3750809375001,327.99L1142.460030625,226.2L1142.8564625000001,335.53000000000003L1142.8847790625,316.68L1142.9414121875,256.35999999999996L1143.8475421875,331.76L1143.87585875,245.05L1143.9041753125,327.99L1144.10239125,327.99L1144.4138734375001,312.90999999999997L1144.838621875,282.75L1144.9802046875,339.3L1145.8297015625,335.53000000000003L1146.197816875,320.45L1146.4526659375001,331.76L1146.707515,316.68L1146.877414375,335.53000000000003L1146.9906806249999,301.6L1147.4720621875,237.51L1147.5286953125,275.21L1147.557011875,320.45L1147.896810625,335.53000000000003L1148.4065087499998,316.68L1148.8878903124998,331.76L1149.1144228125,226.2L1149.76570375,271.44L1150.0205528125,320.45L1150.0771859375,275.21L1150.1338190625,324.21999999999997L1150.2470853125,263.9L1150.2754018750002,252.58999999999997L1150.5868840625,320.45L1150.67183375,263.9L1150.89836625,335.53000000000003L1150.9833159375,294.06L1151.6629134375,233.74L1151.7761796875,305.37L1151.8328128125002,320.45L1152.25756125,267.66999999999996L1152.6256765625,271.44L1153.2769575,316.68L1153.7017059375,312.90999999999997L1153.7300225000001,320.45L1153.9282384374999,327.99L1154.06982125,286.52L1154.2114040625,79.16999999999999L1154.3246703125,294.06L1154.3813034375,327.99L1154.8343684375,335.53000000000003L1155.3440665624998,320.45L1155.372383125,229.97L1155.5705990625,339.3L1155.65554875,320.45L1156.33514625,320.45L1156.4200959375,252.58999999999997L1156.618311875,294.06L1156.7032615625,339.3L1156.731578125,327.99L1156.78821125,297.83000000000004L1156.8165278125,282.75L1157.5244418749999,312.90999999999997L1157.7792909375,312.90999999999997L1158.4588884375,339.3L1158.6854209374999,188.5L1159.0818528125,339.3L1159.110169375,339.3L1159.2517521875,278.98L1159.5915509375,309.14000000000004L1160.41273125,218.66000000000003L1160.469364375,294.06L1160.5259975,271.44L1160.75253,335.53000000000003L1161.2339115625,327.99L1161.375494375,252.58999999999997L1161.99845875,309.14000000000004L1162.0834084374999,316.68L1162.2249912500001,339.3L1162.5364734375,241.28L1162.5931065625,324.21999999999997L1162.7630059374999,335.53000000000003L1162.7913225,339.3L1162.961221875,271.44L1163.1594378125,301.6L1163.3293371875,335.53000000000003L1163.414286875,316.68L1163.8956684375,320.45L1164.2354671875,282.75L1164.3204168749999,312.90999999999997L1164.5186328125,305.37L1164.9716978125,309.14000000000004L1165.0283309375,297.83000000000004L1165.1982303125,335.53000000000003L1165.3114965625,305.37L1165.7645615625,335.53000000000003L1166.245943125,316.68L1166.812274375,320.45L1167.3219725,297.83000000000004L1167.378605625,226.2L1167.43523875,301.6L1167.5201884375,248.81999999999996L1167.605138125,327.99L1168.0865196875,301.6L1168.3980018749999,316.68L1168.4263184375,324.21999999999997L1168.79443375,184.73L1169.643930625,305.37L1169.70056375,339.3L1170.3801612500001,294.06L1170.4934275,309.14000000000004L1170.550060625,331.76L1170.71996,312.90999999999997L1170.8049096875,278.98L1170.8615428125001,335.53000000000003L1171.116391875,297.83000000000004L1171.3146078125,211.12000000000003L1171.682723125,192.27L1171.909255625,278.98L1172.2773709375,339.3L1172.3340040625,335.53000000000003L1172.4189537500001,222.43000000000004L1172.7587525,305.37L1172.87201875,241.28L1173.0136015625,282.75L1173.0702346875,324.21999999999997L1173.3534003125,286.52L1173.4666665625,320.45L1174.287846875,312.90999999999997L1174.4294296875,324.21999999999997L1174.627645625,278.98L1175.36387625,278.98L1175.5904087499998,316.68L1175.873574375,320.45L1176.100106875,324.21999999999997L1176.2983228125,320.45L1176.4115890625,282.75L1176.72307125,305.37L1176.8929706249999,331.76L1177.06287,331.76L1177.685834375,237.51L1177.9973165625,294.06L1178.138899375,335.53000000000003L1178.3937484375,233.74L1178.422065,237.51L1178.76186375,335.53000000000003L1179.0733459374999,339.3L1179.158295625,339.3L1179.44146125,305.37L1180.7723396875,335.53000000000003L1180.9139225000001,335.53000000000003L1180.9422390625,275.21L1181.2254046875,252.58999999999997L1183.29251375,120.63999999999999L1183.6039959375,275.21L1183.6323125,320.45L1183.688945625,331.76L1183.74557875,305.37L1183.8305284374999,335.53000000000003L1183.858845,301.6L1184.5667590624998,335.53000000000003L1184.7083418749999,327.99L1184.7932915625,305.37L1185.0198240625,320.45L1185.3313062500001,316.68L1185.5861553125,335.53000000000003L1185.671105,301.6L1185.6994215625,222.43000000000004L1186.1241699999998,339.3L1186.577235,327.99L1186.7471343749999,331.76L1186.860400625,263.9L1187.1152496875,324.21999999999997L1187.1718828125001,260.13L1187.426731875,335.53000000000003L1187.539998125,335.53000000000003L1187.7098975,320.45L1187.8514803125,327.99L1188.5877109375,320.45L1188.84256,339.3L1189.2673084374999,339.3L1189.4655243749999,331.76L1189.63542375,327.99L1189.74869,309.14000000000004L1189.7770065625,290.29L1190.31502125,339.3L1190.3999709375,335.53000000000003L1190.5698703125,278.98L1191.4193671875,324.21999999999997L1191.5892665625001,248.81999999999996L1191.7025328125,316.68L1192.014015,335.53000000000003L1192.0706481250002,320.45L1192.5520296875002,290.29L1192.58034625,316.68L1193.1183609375,312.90999999999997L1193.1466775000001,278.98L1193.2316271875,324.21999999999997L1193.4864762500001,309.14000000000004L1193.71300875,335.53000000000003L1193.769641875,312.90999999999997L1193.7979584375,316.68L1194.5058725,339.3L1194.5908221875,309.14000000000004L1194.902304375,245.05L1194.9872540625,294.06L1195.0438871875,327.99L1195.1005203124998,327.99L1195.4403190625,312.90999999999997L1195.921700625,339.3L1196.5163484375,339.3L1196.714564375,327.99L1196.941096875,320.45L1197.054363125,324.21999999999997L1197.2525790625,339.3L1197.2808956249999,324.21999999999997L1197.3092121875,260.13L1197.5923778125,297.83000000000004L1198.3286084375,282.75L1198.47019125,339.3L1198.92325625,278.98L1199.2347384375,173.42L1199.3480046875,297.83000000000004L1199.37632125,335.53000000000003L1199.6028537500001,335.53000000000003L1199.6878034375,282.75L1199.71612,207.35000000000002L1199.772753125,297.83000000000004L1199.8577028125,237.51L1200.112551875,222.43000000000004L1200.225818125,316.68L1200.4240340625,320.45L1200.452350625,320.45L1200.62225,252.58999999999997L1200.792149375,211.12000000000003L1200.8487825,331.76L1200.9337321875,324.21999999999997L1201.924811875,309.14000000000004L1202.264610625,71.62999999999998L1202.8026253125,124.40999999999998L1202.8592584375,339.3L1203.397273125,335.53000000000003L1203.45390625,327.99L1203.4822228125,331.76L1204.0202375000001,301.6L1204.699835,339.3L1204.7847846875,312.90999999999997L1205.1529,188.5L1205.3794325000001,309.14000000000004L1205.6342815624998,327.99L1205.7192312500001,252.58999999999997L1205.7758643749999,248.81999999999996L1205.8041809375,339.3L1206.2006128125001,286.52L1206.4271453125,233.74L1207.0501096875,271.44L1207.2200090625,248.81999999999996L1207.30495875,331.76L1207.5031746875,339.3L1207.87129,214.89000000000001L1207.927923125,327.99L1207.9562396875,335.53000000000003L1208.1544556249999,297.83000000000004L1208.66415375,335.53000000000003L1209.3154346875,327.99L1209.4570175,267.66999999999996L1210.02334875,339.3L1210.079981875,339.3L1210.24988125,339.3L1210.986111875,320.45L1211.1276946875,294.06L1211.49581,320.45L1211.60907625,327.99L1212.118774375,316.68L1212.345306875,256.35999999999996L1212.9965878125,335.53000000000003L1213.0815375,278.98L1213.1098540625,339.3L1213.2231203125,327.99L1213.251436875,331.76L1213.364703125,335.53000000000003L1213.9876675,290.29L1214.6389484375,214.89000000000001L1215.00706375,320.45L1215.46012875,245.05L1215.7716109375,297.83000000000004L1216.2246759375,275.21L1216.6211078125,309.14000000000004L1216.6494243749999,309.14000000000004L1216.7343740625001,286.52L1217.2157556250002,301.6L1217.895353125,339.3L1217.9519862500001,294.06L1218.3484181249999,229.97L1218.8864328125,290.29L1218.914749375,290.29L1218.9713825,324.21999999999997L1219.1129653125001,339.3L1219.9058290625,237.51L1220.160678125,297.83000000000004L1220.3588940625,256.35999999999996L1220.4721603125,271.44L1220.6420596875,331.76L1220.8119590625001,324.21999999999997L1220.953541875,339.3L1221.0384915625,286.52L1221.0951246875,335.53000000000003L1221.519873125,165.87999999999997L1221.7747221875,316.68L1222.0012546875,222.43000000000004L1222.48263625,324.21999999999997L1222.6242190625,327.99L1222.6808521875,226.2L1223.0206509375,286.52L1223.0772840625,339.3L1223.2471834374999,335.53000000000003L1223.5869821874999,275.21L1223.728565,297.83000000000004L1224.011730625,312.90999999999997L1224.29489625,301.6L1225.0877600000001,339.3L1225.144393125,211.12000000000003L1225.257659375,237.51L1225.6824078125,222.43000000000004L1226.8433868749999,226.2L1226.9283365625001,324.21999999999997L1227.0416028125,339.3L1227.4380346875,320.45L1227.7495168750002,339.3L1227.9477328125,282.75L1228.429114375,327.99L1228.5140640625,324.21999999999997L1228.655646875,339.3L1228.7972296875,324.21999999999997L1228.9671290625,252.58999999999997L1229.3069278125001,301.6L1229.335244375,267.66999999999996L1229.8166259375,180.95999999999998L1229.901575625,335.53000000000003L1230.0997915625,180.95999999999998L1230.8643387500001,339.3L1230.9209718749999,226.2L1231.1191878125,256.35999999999996L1231.6288859375,309.14000000000004L1231.6855190625001,312.90999999999997L1231.883735,339.3L1232.1385840625,335.53000000000003L1232.4217496875,327.99L1232.45006625,301.6L1232.733231875,331.76L1232.846498125,320.45L1232.8748146875,320.45L1233.412829375,252.58999999999997L1233.5544121875,327.99L1233.6110453125,128.17999999999998L1233.7243115625001,339.3L1233.979160625,331.76L1234.48885875,316.68L1235.05519,275.21L1235.1967728125,309.14000000000004L1235.451621875,260.13L1235.6215212500001,327.99L1235.6498378125,297.83000000000004L1235.678154375,286.52L1235.7631040625001,339.3L1235.84805375,245.05L1236.471018125,327.99L1236.9523996875,327.99L1236.9807162500001,267.66999999999996L1237.0939825,290.29L1237.2355653125,271.44L1237.43378125,233.74L1237.6886303125,339.3L1237.7452634375,305.37L1238.0284290625,278.98L1238.1983284374999,301.6L1238.2549615625,312.90999999999997L1238.4248609375,252.58999999999997L1238.4814940625,275.21L1238.5381271875,327.99L1238.8779259375,222.43000000000004L1238.9345590624998,252.58999999999997L1238.9911921875,275.21L1239.642473125,229.97L1239.8973221874999,312.90999999999997L1239.982271875,324.21999999999997L1240.435336875,267.66999999999996L1240.7185024999999,320.45L1240.7468190625,294.06L1240.8034521875002,339.3L1240.9733515624998,260.13L1241.1432509375,331.76L1241.341466875,335.53000000000003L1241.4830496875,297.83000000000004L1241.681265625,294.06L1241.851165,278.98L1242.2192803125001,256.35999999999996L1242.9555109375,339.3L1243.5218421875,320.45L1243.606791875,177.19L1243.720058125,320.45L1243.7483746875,331.76L1243.946590625,252.58999999999997L1244.4279721875,256.35999999999996L1244.7394543750002,324.21999999999997L1245.0509365625,324.21999999999997L1245.2491525,309.14000000000004L1245.419051875,320.45L1246.098649375,331.76L1247.4295278124998,256.35999999999996L1247.6560603125,169.64999999999998L1247.7693265625,211.12000000000003L1248.137441875,309.14000000000004L1248.4489240625,339.3L1248.5621903125,309.14000000000004L1248.7887228125,339.3L1248.8170393750001,339.3L1248.930305625,309.14000000000004L1249.1851546875,275.21L1249.2134712499999,309.14000000000004L1249.496636875,335.53000000000003L1249.5249534375,297.83000000000004L1249.55327,278.98L1249.7798025,203.58L1250.34613375,218.66000000000003L1251.02573125,252.58999999999997L1251.1389975,331.76L1251.195630625,305.37L1251.2239471875,331.76L1251.308896875,324.21999999999997L1251.5920625,335.53000000000003L1251.8469115625,286.52L1251.93186125,271.44L1252.215026875,331.76L1252.3566096875,316.68L1253.3760059375002,294.06L1253.630855,290.29L1253.687488125,324.21999999999997L1253.800754375,286.52L1253.97065375,312.90999999999997L1254.0556034375,286.52L1254.253819375,267.66999999999996L1254.480351875,339.3L1254.5653015625,222.43000000000004L1254.7918340625001,339.3L1254.9051003125,327.99L1255.0183665625,165.87999999999997L1255.3015321875,271.44L1255.3298487499999,324.21999999999997L1255.6696475,339.3L1255.78291375,339.3L1255.9811296875,301.6L1256.0943959375,331.76L1256.4058781249998,312.90999999999997L1256.745676875,248.81999999999996L1257.198741875,324.21999999999997L1257.9066559375,331.76L1258.331404375,290.29L1258.72783625,278.98L1258.8411025,331.76L1258.95436875,335.53000000000003L1259.18090125,309.14000000000004L1259.3508006250001,339.3L1259.3791171875,290.29L1259.86049875,327.99L1260.1153478125,324.21999999999997L1260.2852471875,339.3L1260.5117796875,316.68L1260.596729375,301.6L1261.21969375,150.8L1261.7010753125,263.9L1261.8143415625,290.29L1262.0408740624998,339.3L1262.12582375,331.76L1262.295723125,271.44L1262.80542125,320.45L1262.862054375,335.53000000000003L1263.3717525,309.14000000000004L1263.4850187499999,305.37L1263.5699684375,305.37L1264.0796665624998,301.6L1264.1929328125,207.35000000000002L1264.39114875,324.21999999999997L1264.7592640625,324.21999999999997L1264.9291634375,339.3L1265.3255953125001,177.19L1265.6653940625,271.44L1265.8636099999999,320.45L1266.0901425,309.14000000000004L1266.316675,339.3L1266.3449915625,339.3L1266.486574375,316.68L1266.5998406249998,237.51L1266.9679559375,339.3L1267.0812221874999,290.29L1267.4776540625,301.6L1267.8174528125,301.6L1267.8457693750001,327.99L1268.0439853125,241.28L1268.2705178125,180.95999999999998L1268.4404171875,267.66999999999996L1268.6103165625,305.37L1268.8085325,294.06L1268.865165625,309.14000000000004L1269.1200146874999,324.21999999999997L1269.1766478125,278.98L1269.204964375,316.68L1269.7429790625,75.39999999999998L1269.82792875,327.99L1270.0827778125,305.37L1270.450893125,305.37L1270.7623753125,275.21L1270.847325,229.97L1271.130490625,312.90999999999997L1271.5835556250001,275.21L1271.8950378125,297.83000000000004L1272.4047359375002,301.6L1272.6879015625,327.99L1272.716218125,327.99L1272.8578009375,203.58L1272.8861175,286.52L1273.0843334375,278.98L1273.1975996874999,290.29L1273.22591625,327.99L1273.2542328125,339.3L1273.8771971875,316.68L1273.90551375,331.76L1274.0187799999999,312.90999999999997L1274.075413125,339.3L1274.3302621875,327.99L1274.4435284375002,301.6L1274.528478125,331.76L1275.26470875,252.58999999999997L1275.2930253125,327.99L1275.547874375,233.74L1275.6328240625,339.3L1275.7460903125,301.6L1275.83104,305.37L1276.114205625,331.76L1276.1425221875,335.53000000000003L1276.17083875,237.51L1276.1991553125,263.9L1276.340738125,237.51L1276.5106375,290.29L1276.62390375,229.97L1276.680536875,131.95L1277.1336018749998,339.3L1277.30350125,331.76L1277.3318178125,335.53000000000003L1277.5583503125001,339.3L1277.7282496875,290.29L1278.0963649999999,203.58L1278.2945809375,286.52L1278.5777465625,139.49L1279.3139771875,339.3L1279.965258125,312.90999999999997L1280.1634740625,252.58999999999997L1280.3333734375,331.76L1280.4183231250001,335.53000000000003L1281.2961365625,320.45L1281.324453125,301.6L1281.777518125,199.81L1281.8058346875,233.74L1282.0890003125,335.53000000000003L1282.1739499999999,305.37L1282.230583125,309.14000000000004L1282.5420653125,324.21999999999997L1282.7119646875,339.3L1282.796914375,327.99L1282.910180625,297.83000000000004L1283.41987875,335.53000000000003L1283.4481953125,260.13L1283.5614615625,339.3L1283.64641125,301.6L1283.703044375,316.68L1284.09947625,327.99L1284.2127424999999,327.99L1284.5242246875,327.99L1284.609174375,324.21999999999997L1285.175505625,241.28L1285.402038125,271.44L1285.68520375,256.35999999999996L1285.7135203125001,229.97L1286.0250025,331.76L1286.6762834375,286.52L1286.81786625,278.98L1287.2992478125,312.90999999999997L1287.95052875,214.89000000000001L1288.007161875,316.68L1288.5451765625,177.19L1288.5734931250001,290.29L1288.686759375,192.27L1288.800025625,271.44L1289.30972375,335.53000000000003L1289.479623125,324.21999999999997L1289.5079396875,158.34L1290.6972353125,301.6L1290.9237678125,339.3L1291.1503003125,294.06L1291.178616875,324.21999999999997L1291.6599984375,290.29L1291.8865309375,226.2L1292.02811375,327.99L1292.14138,320.45L1292.4528621875,305.37L1292.7926609375,248.81999999999996L1292.877610625,335.53000000000003L1292.93424375,339.3L1293.0475099999999,301.6L1293.2740425,312.90999999999997L1294.3783884375,320.45L1294.97303625,252.58999999999997L1295.142935625,331.76L1295.1712521875002,339.3L1295.2278853125,312.90999999999997L1295.65263375,339.3L1295.8508496875,331.76L1296.502130625,241.28L1296.615396875,320.45L1296.9268790625,305.37L1297.01182875,339.3L1297.4932103125,335.53000000000003L1297.6631096875,297.83000000000004L1298.031225,324.21999999999997L1298.59755625,226.2L1298.8524053125,177.19L1299.2488371875002,294.06L1299.3054703125,320.45L1299.3621034375,286.52L1299.6169525,320.45L1299.8718015625,301.6L1300.0983340625,320.45L1300.6646653125001,327.99L1300.7212984374999,335.53000000000003L1300.8062481250001,312.90999999999997L1300.8628812499999,222.43000000000004L1301.032780625,324.21999999999997L1301.372579375,237.51L1301.4008959375,339.3L1301.599111875,339.3L1301.6840615625,331.76L1301.825644375,320.45L1302.0238603125,320.45L1302.0804934375,271.44L1303.5246381250001,339.3L1303.8361203125,147.03L1303.92107,335.53000000000003L1304.0626528125,335.53000000000003L1304.2891853125,305.37L1304.5157178125,226.2L1304.6289840625,320.45L1304.657300625,339.3L1304.71393375,335.53000000000003L1304.7988834374999,339.3L1304.997099375,305.37L1305.110365625,260.13L1305.2236318750001,339.3L1305.4784809375,331.76L1305.5067975,309.14000000000004L1305.6483803125,320.45L1305.7616465625,252.58999999999997L1305.789963125,263.9L1306.2147115625,327.99L1307.0642084375,335.53000000000003L1307.092525,339.3L1307.43232375,339.3L1307.6305396875,241.28L1307.7721225,335.53000000000003L1308.168554375,278.98L1308.4234034375,335.53000000000003L1308.848151875,237.51L1309.1596340625001,335.53000000000003L1309.3578499999999,245.05L1309.3861665625,335.53000000000003L1309.47111625,335.53000000000003L1309.6410156250001,331.76L1310.60377875,199.81" style="fill: none;" fill="none"></path></g><g><path stroke="rgb(0, 119, 187)" stroke-width="2px" d="M835.11206125,309.14000000000004L835.4801765625,339.3L835.6500759375,320.45L836.1031409374999,327.99L836.1597740625,327.99L836.24472375,275.21L836.47125625,305.37L836.5562059375001,327.99L836.980954375,335.53000000000003L837.0659040625,290.29L837.6322353125,267.66999999999996L837.8587678125,335.53000000000003L837.9720340625,324.21999999999997L838.5383653125,324.21999999999997L838.9064806250001,327.99L839.359545625,260.13L839.4444953125,339.3L839.6993443750001,316.68L840.0108265625,331.76L840.152409375,339.3L840.2090425,324.21999999999997L840.2373590625,267.66999999999996L840.3506253124999,297.83000000000004L840.8320068749999,294.06L841.45497125,275.21L841.5965540624999,320.45L842.0213025,335.53000000000003L842.191201875,335.53000000000003L842.3327846875001,335.53000000000003L842.531000625,297.83000000000004L842.6442668750001,290.29L842.7008999999999,233.74L843.2389146875,335.53000000000003L843.6919796875,339.3L843.7486128125,271.44L843.9751453125,305.37L844.3149440625,290.29L844.569793125,316.68L844.796325625,320.45L845.2493906249999,324.21999999999997L845.3626568750001,335.53000000000003L846.8917512500001,339.3L846.9200678125001,335.53000000000003L847.4014493750001,312.90999999999997L847.4863990625,335.53000000000003L847.57134875,305.37L847.9960971875,275.21L848.081046875,331.76L848.1093634375,312.90999999999997L848.3925290625,252.58999999999997L848.873910625,309.14000000000004L848.9305437500001,339.3L849.5251915625,305.37L850.006573125,301.6L850.1481559375,324.21999999999997L850.912703125,324.21999999999997L851.1958687499999,339.3L851.3657681249999,320.45L851.42240125,324.21999999999997L851.5639840625,324.21999999999997L851.592300625,331.76L852.0170490625,339.3L852.5267471875001,320.45L852.5833803125,316.68L852.9231790624999,324.21999999999997L853.121395,320.45L853.1497115625,331.76L853.2063446875001,312.90999999999997L853.291294375,312.90999999999997L853.3479275000001,331.76L853.6877262500001,290.29L853.970891875,331.76L854.3106906250001,320.45L854.4522734375,335.53000000000003L855.1885040625,316.68L855.3017703124999,331.76L855.4150365625001,331.76L855.4433531249999,256.35999999999996L855.6415690625,335.53000000000003L855.896418125,294.06L856.009684375,324.21999999999997L856.122950625,327.99L856.2645334375,335.53000000000003L856.3777996875,316.68L856.63264875,229.97L856.745915,309.14000000000004L856.802548125,316.68L856.8591812499999,312.90999999999997L857.0573971875,339.3L857.19898,327.99L857.2556131250001,331.76L857.3971959375,339.3L857.4538290625001,324.21999999999997L857.5670953125,290.29L857.6803615625,324.21999999999997L857.8502609375,339.3L857.8785775,312.90999999999997L858.5298584375,327.99L858.6431246875,305.37L859.57757125,312.90999999999997L859.7757871875,327.99L859.9456865625001,335.53000000000003L860.3421184375,297.83000000000004L860.4553846874999,297.83000000000004L860.653600625,327.99L860.71023375,297.83000000000004L860.880133125,312.90999999999997L860.9367662499999,309.14000000000004L861.333198125,222.43000000000004L861.3615146875001,339.3L861.6446803125,309.14000000000004L861.7296299999999,320.45L861.9844790625,305.37L862.0977453125,331.76L862.2110115625,335.53000000000003L862.465860625,297.83000000000004L862.4941771875001,327.99L862.6640765625,320.45L862.692393125,248.81999999999996L862.8339759375,309.14000000000004L863.1737746875,324.21999999999997L863.3436740625,320.45L863.42862375,324.21999999999997L863.6834728125,331.76L863.994955,309.14000000000004L864.5329696875001,331.76L864.901085,324.21999999999997L865.070984375,327.99L865.1559340625,316.68L865.2125671875,275.21L865.3258334374999,335.53000000000003L865.4957328124999,229.97L865.637315625,252.58999999999997L865.9204812500001,324.21999999999997L866.0903806250001,316.68L866.2319634375001,278.98L866.5151290625,316.68L866.656711875,297.83000000000004L867.7044246874999,316.68L867.8176909375001,312.90999999999997L867.8460074999999,320.45L867.8743240624999,324.21999999999997L868.3840221875,331.76L868.7238209375,316.68L868.7521375,335.53000000000003L868.9220368750001,297.83000000000004L869.1202528125,305.37L869.8564834375001,335.53000000000003L870.1962821875001,286.52L870.5077643750001,335.53000000000003L870.5927140625,294.06L870.67766375,312.90999999999997L871.243995,320.45L871.413894375,339.3L871.6121103124999,305.37L871.7820096874999,309.14000000000004L872.0651753125001,290.29L872.2350746875001,331.76L872.320024375,301.6L872.6315065625,324.21999999999997L872.71645625,324.21999999999997L872.8014059375,335.53000000000003L872.8297225,320.45L874.1889175,327.99L874.2738671875001,312.90999999999997L874.358816875,309.14000000000004L874.3871334375,305.37L875.0100978125,324.21999999999997L875.3498965625,327.99L875.4065296875,286.52L875.5197959375,320.45L875.6330621875001,335.53000000000003L875.7463284375,316.68L876.4542425000001,301.6L876.4825590625001,312.90999999999997L876.7940412500001,324.21999999999997L877.02057375,312.90999999999997L877.13384,327.99L877.190473125,320.45L877.6718546875001,339.3L878.096603125,316.68L878.209869375,316.68L878.9177834375,282.75L879.3708484375,305.37L879.399165,312.90999999999997L879.8239134375,316.68L879.9371796875,297.83000000000004L880.3902446875001,335.53000000000003L880.4185612499999,324.21999999999997L880.7866765625,297.83000000000004L881.0415256250001,335.53000000000003L881.1831084375001,316.68L881.32469125,327.99L881.4096409375,327.99L881.55122375,312.90999999999997L881.6361734375,324.21999999999997L881.9759721875,237.51L882.2025046875,229.97L882.4007206250001,335.53000000000003L882.5989365625001,294.06L882.853785625,324.21999999999997L882.9670518749999,320.45L882.9953684375,312.90999999999997L883.023685,324.21999999999997L883.0803181250001,335.53000000000003L883.1652678125,312.90999999999997L883.36348375,339.3L883.6183328125,309.14000000000004L883.9014984375,331.76L884.0147646875,297.83000000000004L884.0713978125,309.14000000000004L884.1563475,335.53000000000003L884.2979303125001,309.14000000000004L884.38288,327.99L884.4111965625,297.83000000000004L884.439513125,339.3L884.9775278124999,335.53000000000003L885.232376875,316.68L885.40227625,305.37L885.6004921874999,309.14000000000004L885.62880875,282.75L885.8836578125,297.83000000000004L886.0818737499999,245.05L886.4216725,339.3L886.6765215625,331.76L886.7897878125,301.6L887.0729534375,316.68L887.1862196874999,327.99L887.44106875,324.21999999999997L887.8091840625,275.21L887.89413375,331.76L888.064033125,301.6L888.1206662499999,331.76L889.0834293749999,305.37L889.2533287499999,263.9L889.7347103124999,312.90999999999997L889.7913434375,339.3L890.0178759375,237.51L890.102825625,331.76L890.1594587499999,339.3L890.669156875,316.68L891.0655887500001,297.83000000000004L891.1222218749999,339.3L891.63192,316.68L891.74518625,327.99L891.97171875,309.14000000000004L892.4531003125,309.14000000000004L892.6229996875,327.99L893.3025971874999,324.21999999999997L893.6423959374999,335.53000000000003L893.6707124999999,320.45L893.7556621875001,320.45L893.78397875,305.37L893.840611875,339.3L893.897245,331.76L894.01051125,320.45L894.1237775,297.83000000000004L894.2653603125,305.37L894.3219934375,331.76L894.746741875,335.53000000000003L895.7095049999999,256.35999999999996L895.82277125,271.44L895.879404375,309.14000000000004L896.0209871874999,339.3L896.2758362500001,312.90999999999997L896.6156349999999,339.3L896.898800625,316.68L896.95543375,286.52L897.0120668750001,320.45L897.0403834375,320.45L897.1536496875,335.53000000000003L897.2385993749999,320.45L897.465131875,335.53000000000003L897.5783981249999,316.68L897.97483,301.6L898.144729375,335.53000000000003L898.2863121875,339.3L898.3146287500001,339.3L898.371261875,320.45L898.4562115625,312.90999999999997L898.5128446875,320.45L898.5694778125,309.14000000000004L898.597794375,335.53000000000003L898.7960103125,316.68L898.88096,335.53000000000003L899.0225428125,327.99L899.5605575000001,324.21999999999997L899.843723125,335.53000000000003L900.0136225,331.76L900.183521875,339.3L900.296788125,312.90999999999997L900.3251046875,297.83000000000004L900.636586875,309.14000000000004L900.6649034375,320.45L901.089651875,290.29L901.3728175,320.45L901.6276665625,324.21999999999997L902.109048125,312.90999999999997L902.61874625,327.99L902.6470628124999,282.75L902.7036959375,320.45L902.9868615625,327.99L903.1001278125,309.14000000000004L903.6381425000001,260.13L903.9496246875001,320.45L904.1761571874999,226.2L904.3460565624999,324.21999999999997L904.374373125,327.99L904.43100625,278.98L904.487639375,278.98L904.6292221875,312.90999999999997L905.33713625,312.90999999999997L905.3654528125,286.52L905.6486184375,312.90999999999997L905.7052515625,327.99L905.8468343750001,316.68L906.2432662499999,331.76L906.413165625,248.81999999999996L906.6113815625,320.45L906.6680146875,305.37L907.092763125,331.76L907.206029375,256.35999999999996L907.2626625,294.06L907.6307778124999,324.21999999999997L907.9705765625,309.14000000000004L908.3103753125,316.68L908.338691875,335.53000000000003L908.3670084375001,320.45L908.5935409374999,339.3L908.7634403124999,301.6L909.244821875,282.75L909.41472125,320.45L909.4430378125,294.06L909.6695703124999,335.53000000000003L909.8394696874999,290.29L910.0093690625,335.53000000000003L910.1509518749999,339.3L910.8022328124999,316.68L910.8588659375,271.44L911.00044875,241.28L911.1420315625,316.68L911.510146875,320.45L911.7083628124999,316.68L912.1331112500001,316.68L912.4729100000001,335.53000000000003L912.5578596875,312.90999999999997L912.9542915625,312.90999999999997L912.982608125,309.14000000000004L913.03924125,331.76L913.94537125,263.9L913.9736878125,324.21999999999997L914.0020043750001,301.6L914.2002203125,297.83000000000004L914.5117025000001,305.37L914.9364509375,324.21999999999997L915.021400625,335.53000000000003L915.07803375,241.28L915.927530625,297.83000000000004L916.2956459375,312.90999999999997L916.5504950000001,309.14000000000004L916.8053440625,290.29L916.9752434375,320.45L917.0885096874999,339.3L917.56989125,335.53000000000003L917.626524375,331.76L917.6548409375001,297.83000000000004L917.6831575,312.90999999999997L917.9946396874999,335.53000000000003L918.5043378125,309.14000000000004L918.985719375,331.76L919.2122518750001,331.76L919.8635328125001,286.52L920.1183818750001,331.76L920.175015,248.81999999999996L920.231648125,312.90999999999997L920.3449143749999,256.35999999999996L920.3732309375,331.76L920.6847131249999,331.76L920.7696628125001,316.68L920.9961953124999,327.99L921.081145,327.99L921.3359940624999,331.76L921.7607424999999,297.83000000000004L921.87400875,294.06L921.930641875,320.45L922.3553903125,312.90999999999997L922.7235056249999,263.9L923.3747865624999,339.3L923.7995349999999,331.76L923.8278515625,312.90999999999997L924.0260675,331.76L924.1676503125,312.90999999999997L924.309233125,275.21L924.4224993749999,320.45L924.4791325,335.53000000000003L924.9321974999999,335.53000000000003L925.441895625,282.75L925.4702121875,331.76L925.6684281250001,305.37L925.7533778125,324.21999999999997L926.4329753125,327.99L926.517925,263.9L926.7161409375,339.3L926.8010906249999,305.37L926.8294071875,324.21999999999997L926.8860403125,320.45L926.9143568750001,331.76L927.480688125,324.21999999999997L927.6222709374999,309.14000000000004L927.8771200000001,331.76L927.933753125,339.3L928.5567175,312.90999999999997L928.7832500000001,248.81999999999996L929.1796818749999,301.6L929.2079984375,320.45L929.34958125,327.99L929.68938,309.14000000000004L930.5105603125,312.90999999999997L930.5671934374999,327.99L930.6238265625,316.68L930.8503590625,316.68L931.3317406250001,229.97L931.4733234375001,297.83000000000004L932.0962878125,286.52L932.1812375,297.83000000000004L932.3228203125,339.3L932.52103625,267.66999999999996L932.6343025,297.83000000000004L932.6909356250001,309.14000000000004L932.8608350000001,324.21999999999997L932.8891515625,312.90999999999997L933.0590509375,335.53000000000003L933.2572668749999,312.90999999999997L933.4271662499999,331.76L933.5121159375001,320.45L933.9934975000001,331.76L934.3332962499999,309.14000000000004L934.4182459375,327.99L934.616461875,335.53000000000003L935.0695268750001,335.53000000000003L935.1261599999999,286.52L935.2960593749999,301.6L935.4093256250001,335.53000000000003L935.4659587499999,241.28L935.862390625,324.21999999999997L936.3437721875,339.3L936.9101034375,309.14000000000004L937.4198015625001,331.76L937.4764346874999,324.21999999999997L937.5330678125,286.52L937.6180175000001,324.21999999999997L937.7029671875,297.83000000000004L938.18434875,339.3L938.4958309375,320.45L938.5241475,335.53000000000003L938.8922628124999,312.90999999999997L939.7417596875,290.29L939.7983928125001,335.53000000000003L940.4779903125,320.45L940.5912565625,282.75L940.6478896875,339.3L940.8177890625,320.45L940.90273875,339.3L940.959371875,316.68L941.2142209375,309.14000000000004L941.4124368749999,331.76L941.7805521875,237.51L942.0070846875001,245.05L942.3752,324.21999999999997L942.431833125,305.37L942.5167828125,267.66999999999996L942.8565815625,327.99L942.9698478124999,335.53000000000003L943.111430625,324.21999999999997L943.16806375,335.53000000000003L943.4512293749999,267.66999999999996L943.5644956250001,316.68L944.3856759375,324.21999999999997L944.5272587500001,297.83000000000004L944.7254746875,324.21999999999997L945.4333887500001,290.29L945.4617053125,309.14000000000004L945.6882378125,316.68L945.9714034374999,335.53000000000003L946.1979359375,339.3L946.3961518750001,312.90999999999997L946.509418125,316.68L946.8209003125,335.53000000000003L946.9907996875,320.45L947.1606990625,316.68L947.7836634375,271.44L948.095145625,335.53000000000003L948.2367284375,312.90999999999997L948.4915775,294.06L948.5198940624999,309.14000000000004L948.8596928125,312.90999999999997L949.171175,286.52L949.2561246874999,301.6L949.5392903125,275.21L949.567606875,335.53000000000003L949.5959234374999,203.58L950.87016875,327.99L951.0117515625,320.45L951.040068125,297.83000000000004L951.32323375,324.21999999999997L953.3903428125,286.52L953.701825,290.29L953.7301415625,282.75L953.7867746875,316.68L953.8434078125,260.13L953.9283575000001,331.76L953.9566740625,335.53000000000003L954.664588125,339.3L954.8061709374999,316.68L954.8911206250001,335.53000000000003L955.117653125,331.76L955.4291353125,116.87000000000002L955.683984375,286.52L955.7689340625,316.68L955.7972506250001,297.83000000000004L956.2219990625,339.3L956.6750640624999,256.35999999999996L956.8449634374999,327.99L956.9582296875,241.28L957.21307875,324.21999999999997L957.2697118750001,316.68L957.5245609375,278.98L957.6378271875,339.3L957.8077265625,320.45L957.949309375,312.90999999999997L958.6855400000001,320.45L958.9403890625,260.13L959.3651375,320.45L959.5633534375,275.21L959.7332528125,335.53000000000003L959.8465190625,301.6L959.8748356250001,339.3L960.4128503125,309.14000000000004L960.4411668749999,324.21999999999997L960.4978,320.45L960.667699375,286.52L961.5171962499999,260.13L961.687095625,286.52L961.800361875,278.98L961.8853115625,331.76L962.1118440625,335.53000000000003L962.1684771875,335.53000000000003L962.6498587499999,335.53000000000003L962.6781753125,297.83000000000004L963.2161900000001,294.06L963.2445065625,331.76L963.32945625,316.68L963.5843053125,312.90999999999997L963.8108378125,324.21999999999997L963.8674709375001,316.68L963.8957875,309.14000000000004L964.3205359375,271.44L964.6037015625001,294.06L964.6886512499999,309.14000000000004L965.0001334374999,335.53000000000003L965.085083125,335.53000000000003L965.14171625,320.45L965.198349375,271.44L965.538148125,278.98L966.0195296875,222.43000000000004L966.444278125,312.90999999999997L966.6141775,312.90999999999997L966.8123934375001,327.99L967.0389259374999,316.68L967.1521921875001,335.53000000000003L967.350408125,327.99L967.3787246874999,331.76L967.40704125,324.21999999999997L967.690206875,327.99L968.4264375,290.29L968.5680203125,305.37L969.0210853125001,305.37L969.162668125,301.6L969.3325675,339.3L969.44583375,312.90999999999997L969.4741503125,271.44L969.7006828125,267.66999999999996L969.7856325,312.90999999999997L969.8139490625,312.90999999999997L969.8705821875,260.13L969.955531875,339.3L970.2103809375,339.3L970.3236471874999,327.99L970.4369134375,309.14000000000004L970.521863125,294.06L970.5501796875,312.90999999999997L970.7200790625,188.5L970.8899784375001,331.76L970.9466115624999,331.76L971.03156125,309.14000000000004L972.0226409375,282.75L972.3624396874999,331.76L972.900454375,324.21999999999997L972.9570875000001,214.89000000000001L973.4101525,203.58L973.4951021874999,312.90999999999997L973.5517353125,339.3L973.5800518750001,312.90999999999997L974.1180665625,327.99L974.7976640625,271.44L974.8826137499999,320.45L975.2507290625,301.6L975.4772615625001,335.53000000000003L975.732110625,324.21999999999997L975.8170603125001,260.13L975.8736934374999,320.45L975.90201,335.53000000000003L976.298441875,335.53000000000003L976.524974375,241.28L977.14793875,301.6L977.317838125,335.53000000000003L977.4027878124999,297.83000000000004L977.60100375,267.66999999999996L977.9691190625,339.3L978.0257521875,335.53000000000003L978.0540687499999,316.68L978.2522846875,309.14000000000004L978.7619828125,316.68L979.2150478125001,233.74L979.41326375,316.68L979.5548465625001,320.45L979.583163125,335.53000000000003L979.7530624999999,278.98L980.1211778125,290.29L980.1778109375,282.75L980.3477103125,327.99L981.0839409375,305.37L981.22552375,275.21L981.5936390625001,252.58999999999997L981.7069053125,316.68L982.2166034375,271.44L982.4431359375,331.76L983.094416875,324.21999999999997L983.1793665625,294.06L983.2076831249999,286.52L983.320949375,301.6L983.3492659375,331.76L983.4625321875001,312.90999999999997L984.0854965625,339.3L984.7367775,237.51L985.1048928124999,294.06L985.5579578125,245.05L985.86944,233.74L986.3225050000001,275.21L986.7189368749999,248.81999999999996L986.7472534375,320.45L986.832203125,339.3L987.3135846875,297.83000000000004L987.4268509375,339.3L987.9931821875,320.45L988.0498153125001,233.74L988.4462471874999,301.6L988.5878299999999,286.52L988.984261875,252.58999999999997L989.0125784375001,320.45L989.0692115625,320.45L989.210794375,331.76L990.003658125,267.66999999999996L990.2585071875001,256.35999999999996L990.4567231249999,316.68L990.5699893750001,252.58999999999997L990.7398887500001,237.51L990.909788125,327.99L991.0513709375001,331.76L991.1363206249999,278.98L991.19295375,301.6L991.6177021875,320.45L991.8725512499999,327.99L992.09908375,339.3L992.5804653125,316.68L992.722048125,301.6L992.7786812500001,267.66999999999996L993.11848,320.45L993.1751131249999,278.98L993.3450125,339.3L993.68481125,290.29L993.8263940625,305.37L994.1095596875,226.2L994.3927253124999,309.14000000000004L994.8741068749999,241.28L995.1855890625,331.76L995.2422221875,335.53000000000003L995.3554884375,301.6L995.6952871875,282.75L995.7802368749999,324.21999999999997L996.9412159375,267.66999999999996L997.0261656250001,324.21999999999997L997.139431875,297.83000000000004L997.53586375,320.45L997.8473459375,335.53000000000003L998.045561875,180.95999999999998L998.2437778125001,309.14000000000004L998.5269434375,331.76L998.6118931249999,290.29L998.7534759375001,275.21L998.8950587500001,286.52L999.0649581250001,335.53000000000003L999.404756875,282.75L999.4330734375,339.3L999.914455,278.98L999.9994046875,305.37L1000.1976206249999,320.45L1000.537419375,331.76L1000.9621678125001,294.06L1001.0188009374999,316.68L1001.217016875,327.99L1001.5001824999999,339.3L1001.726715,294.06L1001.783348125,309.14000000000004L1001.9815640625,33.929999999999986L1002.2364131249999,339.3L1002.51957875,278.98L1002.5478953124999,252.58999999999997L1002.8310609375001,324.21999999999997L1002.9443271875,305.37L1002.9726437500001,275.21L1003.5106584375,324.21999999999997L1003.65224125,339.3L1003.7088743749999,320.45L1003.822140625,248.81999999999996L1004.0769896875,312.90999999999997L1004.5866878124999,297.83000000000004L1005.1530190625,320.45L1005.294601875,301.6L1005.5494509375,203.58L1005.7193503125,275.21L1005.7476668749999,316.68L1005.7759834375,335.53000000000003L1005.860933125,320.45L1005.9458828125,248.81999999999996L1006.5688471875001,320.45L1007.0502287500001,339.3L1007.0785453125001,305.37L1007.1918115625,301.6L1007.333394375,275.21L1007.5316103125,294.06L1007.7864593749999,294.06L1007.8430925,312.90999999999997L1008.126258125,297.83000000000004L1008.2961575,282.75L1008.3527906250001,271.44L1008.5226899999999,331.76L1008.579323125,327.99L1008.63595625,245.05L1008.975755,324.21999999999997L1009.032388125,335.53000000000003L1009.08902125,309.14000000000004L1009.7403021875001,320.45L1009.9951512499999,335.53000000000003L1010.0801009375001,199.81L1010.5331659375,275.21L1010.8163315625001,312.90999999999997L1010.844648125,320.45L1010.90128125,305.37L1011.071180625,305.37L1011.24108,339.3L1011.4392959375,309.14000000000004L1011.58087875,294.06L1011.7790946875,252.58999999999997L1011.9489940625001,290.29L1012.317109375,327.99L1012.5153253125,297.83000000000004L1013.05334,335.53000000000003L1013.61967125,282.75L1013.7046209375,297.83000000000004L1013.8178871875,309.14000000000004L1013.8462037500001,297.83000000000004L1014.0444196875,327.99L1014.52580125,339.3L1014.8372834375,312.90999999999997L1015.148765625,237.51L1015.3469815625,271.44L1015.5168809375,263.9L1016.1964784375001,316.68L1017.527356875,271.44L1017.7538893750001,324.21999999999997L1017.867155625,294.06L1018.2352709375001,282.75L1018.546753125,312.90999999999997L1018.660019375,309.14000000000004L1018.8865518749999,297.83000000000004L1018.9148684375,267.66999999999996L1019.0281346875,320.45L1019.28298375,256.35999999999996L1019.3113003125001,335.53000000000003L1019.5944659375,256.35999999999996L1019.6227825000001,260.13L1019.6510990625001,339.3L1019.8776315625,312.90999999999997L1019.9908978125,327.99L1020.4439628125001,316.68L1021.1235603125,226.2L1021.2368265625,339.3L1021.2934596875,339.3L1021.32177625,324.21999999999997L1021.4067259374999,339.3L1021.661575,226.2L1021.6898915625001,263.9L1021.944740625,335.53000000000003L1022.0296903125,335.53000000000003L1022.3128559375001,294.06L1022.45443875,320.45L1023.473835,248.81999999999996L1023.7286840625001,327.99L1023.7853171874999,290.29L1023.8985834375001,316.68L1024.0684828125002,169.64999999999998L1024.1534325,335.53000000000003L1024.3516484375,331.76L1024.436598125,316.68L1024.5781809375,320.45L1024.6631306250001,331.76L1024.889663125,252.58999999999997L1025.0029293750001,324.21999999999997L1025.116195625,275.21L1025.39936125,275.21L1025.4276778125,327.99L1025.7674765625,339.3L1025.8807428125,267.66999999999996L1026.07895875,211.12000000000003L1026.192225,324.21999999999997L1026.5037071875,305.37L1026.8435059375,290.29L1027.2965709375,339.3L1028.004485,305.37L1028.4292334375,339.3L1028.6557659374998,218.66000000000003L1028.8256653125,324.21999999999997L1028.9389315625,294.06L1029.0521978125,267.66999999999996L1029.2787303124999,335.53000000000003L1029.4486296875,331.76L1029.47694625,267.66999999999996L1029.9583278125,335.53000000000003L1030.213176875,312.90999999999997L1030.38307625,331.76L1030.60960875,335.53000000000003L1030.6945584374998,290.29L1030.8078246875,339.3L1031.0909903125,339.3L1031.3175228124999,327.99L1031.4024725,339.3L1031.798904375,312.90999999999997L1031.912170625,271.44L1032.138703125,312.90999999999997L1032.2236528125,339.3L1032.3935521875,301.6L1032.9032503125,324.21999999999997L1032.9598834375,339.3L1033.4695815625,309.14000000000004L1033.5828478125,309.14000000000004L1033.6677975,327.99L1034.0925459375,309.14000000000004L1034.177495625,316.68L1034.2907618749998,248.81999999999996L1034.4889778125,320.45L1034.8570931250001,294.06L1035.0269925,327.99L1035.423424375,278.98L1035.763223125,263.9L1035.9614390625,320.45L1036.1879715625,290.29L1036.4145040625,320.45L1036.442820625,327.99L1036.5844034375,327.99L1036.6976696875,297.83000000000004L1037.065785,327.99L1037.17905125,316.68L1037.5754831250001,327.99L1037.915281875,297.83000000000004L1037.9435984375,339.3L1038.141814375,305.37L1038.368346875,233.74L1038.53824625,297.83000000000004L1038.708145625,335.53000000000003L1038.9063615625,316.68L1038.9629946875,305.37L1039.21784375,290.29L1039.2744768750001,331.76L1039.3027934375,327.99L1039.840808125,297.83000000000004L1039.9257578125,335.53000000000003L1040.180606875,335.53000000000003L1040.5487221875,335.53000000000003L1040.860204375,294.06L1040.9451540625,286.52L1041.2283196874998,248.81999999999996L1041.6813846875,241.28L1041.992866875,335.53000000000003L1042.502565,324.21999999999997L1042.785730625,312.90999999999997L1042.8140471875,312.90999999999997L1042.95563,320.45L1042.9839465625,320.45L1043.1821625,335.53000000000003L1043.29542875,305.37L1043.3237453125,331.76L1043.3520618750001,305.37L1043.7768103125,316.68L1043.97502625,339.3L1044.0033428125,335.53000000000003L1044.1166090625,320.45L1044.1732421875001,275.21L1044.42809125,320.45L1044.5413575,327.99L1044.6263071875,320.45L1045.3625378125,282.75L1045.3908543750001,339.3L1045.6457034375,320.45L1045.7306531250001,327.99L1045.843919375,237.51L1045.9288690624999,309.14000000000004L1046.2120346875001,260.13L1046.24035125,335.53000000000003L1046.2686678124999,335.53000000000003L1046.296984375,301.6L1046.4385671875,218.66000000000003L1046.6084665624999,294.06L1046.7217328125,290.29L1046.7783659375,316.68L1047.2314309375,327.99L1047.4013303125,312.90999999999997L1047.4296468750001,301.6L1047.656179375,339.3L1047.8260787499999,339.3L1048.1941940625,286.52L1048.39241,327.99L1048.675575625,335.53000000000003L1049.18527375,297.83000000000004L1049.41180625,278.98L1050.0630871875,339.3L1050.261303125,282.75L1050.4312025,301.6L1050.5161521875,297.83000000000004L1051.393965625,278.98L1051.4222821874998,147.03L1051.8753471875,263.9L1051.9036637499999,320.45L1052.1868293750001,324.21999999999997L1052.2717790625,316.68L1052.3284121875001,301.6L1052.639894375,339.3L1052.8097937500002,294.06L1052.8947434375,158.34L1053.0080096875,271.44L1053.4610746875,335.53000000000003L1053.5177078125,222.43000000000004L1053.5460243750001,312.90999999999997L1053.659290625,282.75L1053.7442403125,301.6L1053.8008734375,312.90999999999997L1054.1973053125,233.74L1054.3105715625,335.53000000000003L1054.62205375,312.90999999999997L1054.7070034375001,339.3L1055.2733346875,290.29L1055.4998671875,327.99L1055.7830328125,339.3L1055.811349375,331.76L1056.1228315625,331.76L1056.7741125,331.76L1056.9156953125,245.05L1057.397076875,297.83000000000004L1058.0483578125,305.37L1058.1049909375,196.04000000000002L1058.6430056250001,316.68L1058.6713221875,278.98L1058.7845884375001,335.53000000000003L1058.8978546875,324.21999999999997L1059.4075528125,324.21999999999997L1059.5774521875,335.53000000000003L1059.60576875,335.53000000000003L1060.795064375,309.14000000000004L1061.021596875,294.06L1061.248129375,339.3L1061.2764459375,339.3L1061.7578275,331.76L1061.98436,339.3L1062.1259428125,275.21L1062.2392090625,327.99L1062.55069125,294.06L1062.89049,301.6L1062.9754396875,339.3L1063.0320728125,278.98L1063.1453390625,339.3L1063.3718715625,339.3L1064.4762174999998,309.14000000000004L1064.985915625,339.3L1065.0708653125,316.68L1065.2407646875001,331.76L1065.26908125,267.66999999999996L1065.325714375,316.68L1065.7504628125,256.35999999999996L1065.94867875,335.53000000000003L1066.2035278125,331.76" style="fill: none;" fill="none"></path></g><g><path stroke="rgb(255, 112, 67)" stroke-width="2px" d="M142.09251062500002,339.3L142.772108125,331.76L142.85705781250002,335.53000000000003L143.5932884375,339.3L144.244569375,339.3L146.056829375,339.3L146.3116784375,339.3L148.0673053125,335.53000000000003L148.208888125,339.3L148.8035359375,339.3L149.3132340625,339.3L150.30431375,335.53000000000003L150.360946875,339.3L150.587479375,339.3L151.9749909375,335.53000000000003L153.5040853125,335.53000000000003L154.60843125,339.3L155.00486312499999,339.3L156.76049,339.3L157.5250371875,339.3L157.97810218749999,339.3L158.176318125,339.3L158.2046346875,335.53000000000003L159.535513125,339.3L159.9036284375,339.3L160.3000603125,339.3L160.5832259375,339.3L161.800838125,339.3L162.027370625,339.3L163.2449828125,339.3L163.41488218749998,339.3L163.8113140625,339.3L163.8679471875,335.53000000000003L164.292695625,339.3L164.462595,335.53000000000003L165.25545875,339.3L168.3419640625,339.3L169.0781946875,339.3L169.10651125,339.3L169.276410625,339.3L170.0409578125,335.53000000000003L170.295806875,339.3L171.68331843750002,339.3L171.768268125,339.3L172.5328153125,335.53000000000003L172.84429749999998,339.3L174.45834156249998,339.3L174.99635625,339.3L176.80861625,339.3L177.2899978125,335.53000000000003L178.84740874999997,339.3L178.9323584375,339.3L179.3287903125,335.53000000000003L179.4420565625,339.3L180.8012515625,339.3L180.9994675,335.53000000000003L181.62243187500002,339.3L181.962230625,339.3L182.24539625,339.3L183.094893125,339.3L183.4063753125,339.3L183.80280718749998,339.3L184.7089371875,339.3L185.5301175,339.3L185.9831825,331.76L186.43624749999998,339.3L186.54951375,339.3L187.0308953125,339.3L188.021975,339.3L189.4661196875,339.3L189.9758178125,339.3L190.230666875,339.3L190.62709875000002,339.3L190.68373187499998,339.3L190.7686815625,335.53000000000003L192.0146103125,339.3L193.288855625,339.3L193.79855375,339.3L194.0534028125,339.3L194.421518125,339.3L194.5064678125,339.3L194.7330003125,339.3L195.86566281249998,339.3L196.347044375,339.3L196.63021,335.53000000000003L196.7151596875,339.3L198.2442540625,339.3L199.23533375000002,339.3L200.39631281249999,331.76L200.62284531249998,339.3L200.73611156249999,339.3L200.9343275,339.3L203.5111346875,339.3L203.8509334375,335.53000000000003L204.19073218749998,335.53000000000003L204.7570634375,339.3L204.89864624999998,339.3L204.92696281250002,339.3L205.49329406249998,339.3L205.634876875,339.3L206.9091221875,339.3L207.2489209375,335.53000000000003L207.9851515625,339.3L208.240000625,339.3L209.23108031249998,339.3L209.259396875,331.76L209.31603,339.3L210.56195874999997,339.3L211.0433403125,339.3L211.0999734375,339.3L211.24155625,339.3L211.9494703125,339.3L211.977786875,339.3L212.2609525,339.3L212.31758562500002,339.3L212.4591684375,339.3L212.8556003125,339.3L213.28034875,339.3L213.70509718749997,339.3L213.8749965625,339.3L217.6127828125,339.3L218.1224809375,339.3L219.17019374999998,339.3L219.566625625,339.3L220.5577053125,339.3L223.5875775,335.53000000000003L225.59805343750003,339.3L226.8439821875,339.3L227.608529375,339.3L227.6934790625,339.3L229.33583968750003,339.3L231.09146656250002,339.3L232.08254625,339.3L233.045309375,339.3L233.328475,339.3L233.44174125,335.53000000000003L233.49837437500003,339.3L233.5266909375,339.3L235.1690515625,339.3L236.3017140625,339.3L237.1795275,335.53000000000003L238.0856575,339.3L238.708621875,335.53000000000003L239.2466365625,339.3L239.67138500000001,339.3L240.12445,335.53000000000003L243.52243749999997,335.53000000000003L244.03213562500002,339.3L244.08876874999999,339.3L245.10816499999999,339.3L245.504596875,339.3L247.09032437500002,339.3L247.203590625,339.3L247.5150728125,339.3L248.98753406249998,335.53000000000003L249.58218187499997,339.3L249.72376468750002,335.53000000000003L249.78039781249998,339.3L250.0635634375,339.3L250.99801,339.3L252.81027,331.76L253.60313375,339.3L254.39599750000002,339.3L255.47202687499998,339.3L255.78350906249997,335.53000000000003L255.86845875,339.3L257.4825028125,339.3L257.624085625,339.3L257.93556781250004,339.3L260.002676875,339.3L260.34247562499996,339.3L260.39910875,339.3L260.56900812500004,339.3L261.2769221875,335.53000000000003L261.418505,335.53000000000003L261.5034546875,339.3L262.2963184375,339.3L262.381268125,339.3L263.4572975,339.3L263.8254128125,339.3L263.8820459375,339.3L266.1756875,339.3L267.1101340625,339.3L268.78081125,339.3L269.26219281249996,339.3L269.85684062499996,339.3L271.3009853125,339.3L272.63186375000004,339.3L273.65126000000004,335.53000000000003L273.76452625,339.3L273.99105875,339.3L275.03877156249996,339.3L276.086484375,339.3L276.313016875,339.3L277.16251374999996,339.3L277.5023125,339.3L277.558945625,339.3L278.634975,339.3L278.97477375,339.3L280.164069375,339.3L282.089595625,339.3L282.34444468749996,339.3L282.42939437499996,339.3L284.581453125,339.3L284.63808625,339.3L284.6664028125,331.76L286.167180625,339.3L286.960044375,335.53000000000003L288.8289375,339.3L289.9332834375,339.3L292.4817740625,339.3L292.9348390625,335.53000000000003L293.3312709375,335.53000000000003L295.05858125,339.3L295.681545625,339.3L297.7486546875,339.3L297.8052878125,339.3L298.7114178125,339.3L299.7874471875,339.3L301.85455625,339.3L301.9678225,339.3L302.3925709375,339.3L303.55355000000003,339.3L303.63849968750003,339.3L305.1392775,339.3L306.0454075,339.3L306.5267890625,335.53000000000003L306.61173875000003,339.3L307.574501875,335.53000000000003L307.63113500000003,339.3L307.8293509375,339.3L308.8487471875,339.3L309.443395,339.3L310.1229925,339.3L310.2645753125,339.3L310.4344746875,339.3L311.19902187499997,339.3L311.765353125,339.3L311.9069359375,339.3L312.331684375,339.3L313.690879375,339.3L314.9084915625,339.3L315.1916571875,339.3L316.60748531250005,339.3L317.1455,339.3L317.5136153125,335.53000000000003L317.6835146875,335.53000000000003L318.05163,335.53000000000003L319.6656740625,339.3L320.316955,339.3L320.4585378125,339.3L321.13813531249997,339.3L321.7610996875,339.3L322.129215,335.53000000000003L322.8088125,339.3L325.52720250000004,339.3L325.64046875,339.3L326.2068,339.3L327.735894375,339.3L328.01905999999997,339.3L328.5570746875,339.3L330.0861690625,339.3L330.341018125,339.3L330.680816875,339.3L330.7657665625,339.3L331.190515,339.3L331.2754646875,339.3L331.6152634375,331.76L332.379810625,339.3L332.493076875,339.3L332.8045590625,339.3L335.437999375,339.3L335.664531875,339.3L336.0892803125,339.3L337.929856875,339.3L338.835986875,339.3L339.5722175,339.3L340.195181875,339.3L342.800305625,331.76L343.026838125,339.3L344.1878171875,339.3L345.91512750000004,339.3L346.79294093749996,339.3L348.29371875,335.53000000000003L348.6052009375,339.3L349.1148990625,339.3L349.3980646875,339.3L349.42638124999996,339.3L349.9643959375,339.3L350.615676875,339.3L351.1536915625,339.3L352.2580375,339.3L352.3429871875,339.3L352.541203125,339.3L352.82436875,339.3L352.9093184375,339.3L353.334066875,339.3L354.2685134375,339.3L354.806528125,339.3L357.04353656250004,339.3L358.03461625,339.3L358.5159978125,339.3L358.94074625,339.3L359.25222843750004,339.3L359.4221278125,339.3L360.4132075,339.3L360.922905625,339.3L361.31933749999996,339.3L361.88566875,335.53000000000003L362.11220125,339.3L362.39536687500004,339.3L363.3864465625,335.53000000000003L365.2553396875,339.3L365.28365625000004,339.3L366.18978625,339.3L367.8604634375,339.3L368.851543125,339.3L369.16302531250005,339.3L369.5028240625,335.53000000000003L369.984205625,339.3L373.21229375,339.3L373.32556000000005,339.3L374.2033734375,339.3L374.3732728125,339.3L376.01563343749996,339.3L376.327115625,339.3L377.3748284375,339.3L377.51641125,339.3L377.57304437499994,339.3L377.74294375,335.53000000000003L378.3942246875,339.3L378.5358075,335.53000000000003L378.7906565625,335.53000000000003L381.33914718750003,335.53000000000003L381.424096875,339.3L382.21696062499996,339.3L382.35854343750003,339.3L382.50012625,339.3L384.14248687500003,335.53000000000003L384.87871750000005,339.3L385.1335665625,339.3L386.068013125,339.3L386.0963296875,339.3L386.35117875000003,339.3L387.65374062499995,339.3L387.7953234375,327.99L390.79687906249995,339.3L391.3065771875,339.3L391.391526875,335.53000000000003L391.9861746875,335.53000000000003L392.977254375,339.3L393.1754703125,339.3L393.65685187500003,327.99L393.713485,339.3L393.7984346875,339.3L394.3930825,339.3L394.59129843750003,339.3L395.24257937500005,339.3L395.7239609375,339.3L396.2336590625,327.99L396.4035584375,339.3L396.6867240625,339.3L397.98928593750003,335.53000000000003L398.2158184375,339.3L398.81046625,339.3L400.8209421875,339.3L402.83141812499997,339.3L403.0296340625,339.3L403.79418125,339.3L405.1250596875,339.3L405.37990875,339.3L406.28603875,339.3L406.88068656250005,335.53000000000003L408.09829874999997,339.3L408.1832484375,339.3L408.74957968750005,339.3L408.94779562499997,339.3L409.68402625,335.53000000000003L411.666185625,335.53000000000003L411.92103468749997,339.3L412.119250625,339.3L412.4873659375,335.53000000000003L413.11033031249997,339.3L414.18635968750004,335.53000000000003L414.8659571875,339.3L415.03585656250004,335.53000000000003L415.68713750000006,339.3L416.196835625,335.53000000000003L418.17899500000004,335.53000000000003L419.42492375,339.3L420.2177875,339.3L420.30273718750004,339.3L421.43539968749997,335.53000000000003L422.1149971875,339.3L423.95557375,339.3L426.164265625,339.3L426.30584843749995,339.3L426.390798125,339.3L427.12702875,335.53000000000003L427.77830968750004,339.3L428.3729575,335.53000000000003L428.82602249999997,339.3L429.50562,339.3L429.98700156250004,335.53000000000003L431.9974775,339.3L432.56380875,339.3L432.7620246875,339.3L435.96179625,339.3L436.04674593749996,335.53000000000003L436.64139375,339.3L436.7829765625,339.3L438.31207093750004,339.3L438.5952365625,339.3L438.70850281250006,331.76L439.52968312499996,339.3L440.43581312500004,339.3L440.46412968749996,339.3L441.681741875,335.53000000000003L441.93659093749994,339.3L442.41797249999996,339.3L442.55955531250004,339.3L442.814404375,339.3L443.267469375,339.3L443.7488509375,339.3L444.8815134375,339.3L445.92922625,339.3L446.18407531249994,339.3L446.212391875,339.3L446.83535624999996,339.3L447.03357218750006,335.53000000000003L447.82643593750004,339.3L448.1096015625,339.3L448.251184375,339.3L448.5626665625,339.3L448.817515625,339.3L449.2139475,335.53000000000003L450.289976875,339.3L450.3749265625,335.53000000000003L451.3376896875,339.3L451.45095593749994,339.3L452.102236875,339.3L452.27213625,339.3L452.328769375,339.3L453.461431875,335.53000000000003L453.63133125,339.3L453.9994465625,339.3L454.14102937499996,339.3L454.53746125,339.3L455.953289375,339.3L456.4913040625,339.3L456.746153125,339.3L457.25585125000003,339.3L458.02039843750003,339.3L458.67167937500005,339.3L458.7283125,339.3L458.75662906249994,331.76L460.42730624999996,335.53000000000003L460.767105,339.3L461.843134375,335.53000000000003L463.28727906250003,339.3L464.9296396875,335.53000000000003L465.9490359375,339.3L466.43041750000003,335.53000000000003L466.99674875000005,339.3L467.8745621875,339.3L468.12941125,339.3L468.6107928125,339.3L468.8373253125,339.3L469.092174375,339.3L469.9699878125,339.3L471.07433375,339.3L471.4141325,335.53000000000003L471.75393125,339.3L472.0654134375,339.3L472.4618453125,335.53000000000003L472.5184784375,331.76L473.5378746875,335.53000000000003L474.5572709375,339.3L475.32181812500005,331.76L475.7465665625,335.53000000000003L476.5960634375,339.3L477.2756609375,339.3L477.7853590625,339.3L479.48435281250005,339.3L479.852468125,335.53000000000003L479.90910125,339.3L480.50374906250005,335.53000000000003L480.645331875,339.3L481.04176375000003,339.3L481.32492937499995,339.3L481.4665121875,339.3L481.664728125,335.53000000000003L482.2027428125,339.3L482.5425415625,335.53000000000003L485.28924812500003,335.53000000000003L485.7139965625,339.3L486.02547875,339.3L486.138745,335.53000000000003L486.59180999999995,339.3L487.52625656249995,335.53000000000003L487.781105625,339.3L489.593365625,339.3L489.6783153125,339.3L490.13138031249997,335.53000000000003L492.59492125,335.53000000000003L492.8497703125,335.53000000000003L493.72758374999995,339.3L494.35054812500005,339.3L494.9735125,335.53000000000003L496.8140890625,335.53000000000003L497.04062156249995,339.3L498.25823375,339.3L499.07941406249995,335.53000000000003L500.38197593750004,327.99L501.1748396875,335.53000000000003L502.845516875,339.3L503.298581875,339.3L504.17639531250006,339.3L504.99757562499997,339.3L505.7054896875,335.53000000000003L505.84707249999997,331.76L506.21518781250006,339.3L506.75320250000004,339.3L507.97081468749997,339.3L508.5371459375,339.3L510.17950656249997,324.21999999999997L510.660888125,339.3L511.4254353125,331.76L511.453751875,335.53000000000003L511.680284375,339.3L512.020083125,339.3L512.3598818749999,339.3L512.7846303125,339.3L512.8978965625,339.3L513.3792781249999,335.53000000000003L514.3986743749999,339.3L514.8234228125,335.53000000000003L515.1065884375,335.53000000000003L515.191538125,335.53000000000003L515.531336875,335.53000000000003L515.5596534375001,335.53000000000003L515.6729196875,335.53000000000003L516.4657834375,335.53000000000003L517.2020140625,335.53000000000003L518.5612090625,335.53000000000003L519.5806053125,339.3L521.081383125,331.76L521.194649375,339.3L521.760980625,335.53000000000003L523.1484921875,339.3L523.9696725,335.53000000000003L525.158968125,339.3L526.6031128125,339.3L527.02786125,331.76L527.25439375,320.45L527.4242931250001,339.3L528.9250709375,339.3L529.010020625,335.53000000000003L529.3781359375,339.3L530.142683125,339.3L530.8505971875,339.3L531.048813125,335.53000000000003L531.6717775000001,327.99L532.634540625,335.53000000000003L533.6256203125,339.3L534.2769012499999,331.76L534.7299662500001,339.3L536.2307440625,339.3L536.7970753124999,335.53000000000003L536.882025,339.3L537.1368740624999,335.53000000000003L537.165190625,339.3L537.33509,335.53000000000003L537.90142125,339.3L537.9580543750001,339.3L540.2800125,335.53000000000003L542.5736540625,339.3L544.2726478124999,327.99L544.4425471874999,339.3L545.093828125,331.76L546.1415409375,339.3L546.1698575,335.53000000000003L546.339756875,335.53000000000003L546.5946059375,335.53000000000003L547.0759875,339.3L547.41578625,335.53000000000003L547.585685625,335.53000000000003L548.152016875,335.53000000000003L549.2563628125,339.3L550.6721909375,339.3L552.003069375,339.3L553.022465625,339.3L553.702063125,339.3L553.7870128124999,335.53000000000003L555.910755,335.53000000000003L556.080654375,335.53000000000003L556.93015125,335.53000000000003L557.1850003125,335.53000000000003L557.2982665625001,335.53000000000003L557.4681659375,335.53000000000003L559.138843125,324.21999999999997L560.0732896874999,339.3L560.10160625,331.76L560.32813875,335.53000000000003L560.441405,335.53000000000003L560.9227865624999,331.76L561.0926859374999,339.3L561.970499375,327.99L562.7350465625,335.53000000000003L563.2730612500001,335.53000000000003L564.2075078125,331.76L564.235824375,331.76L564.915421875,327.99L567.0957971875,335.53000000000003L568.879740625,339.3L570.06903625,331.76L570.1823025,335.53000000000003L571.4282312500001,331.76L571.9662459375,327.99L573.01395875,331.76L573.863455625,339.3L574.0616715625,339.3L575.5058162500001,335.53000000000003L575.9871978125,335.53000000000003L576.1570971875001,339.3L578.280839375,335.53000000000003L578.4507387499999,335.53000000000003L579.2436025,335.53000000000003L579.7249840625,335.53000000000003L579.7816171874999,339.3L580.6877471875,335.53000000000003L581.565560625,335.53000000000003L583.2362378125,339.3L583.54772,335.53000000000003L586.2377934374999,331.76L587.28550625,335.53000000000003L587.96510375,339.3L588.2199528125,339.3L588.3898521875,335.53000000000003L589.6924140625,335.53000000000003L589.77736375,335.53000000000003L590.3153784374999,331.76L590.853393125,335.53000000000003L594.0531646875,335.53000000000003L594.2796971875,335.53000000000003L594.4495965625,335.53000000000003L596.23354,335.53000000000003L597.3378859375,339.3L597.93253375,331.76L599.6032109375,331.76L599.9713262500001,335.53000000000003L600.254491875,331.76L600.3677581249999,339.3L601.6986365625,335.53000000000003L603.7374290625,339.3L604.3603934375001,335.53000000000003L604.841775,339.3L605.40810625,335.53000000000003L606.144336875,324.21999999999997L607.1071000000001,335.53000000000003L607.3619490625,335.53000000000003L608.9476765625,331.76L610.4767709375,335.53000000000003L611.2130015624999,331.76L611.3545843750001,339.3L613.3650603125,335.53000000000003L613.4783265625,327.99L614.3844565625,335.53000000000003L615.771968125,327.99L617.244429375,335.53000000000003L617.527595,331.76L617.5559115625,335.53000000000003L618.263825625,331.76L618.5186746875,331.76L618.9151065625,339.3L620.1044021875,335.53000000000003L620.81231625,335.53000000000003L622.9360584374999,335.53000000000003L624.833268125,335.53000000000003L625.7110815625,327.99L626.6738446875,331.76L627.3251256249999,335.53000000000003L628.401155,335.53000000000003L628.5427378125,335.53000000000003L628.6843206249999,335.53000000000003L629.7320334375,339.3L629.9585659375,335.53000000000003L630.3549978125,335.53000000000003L630.66648,335.53000000000003L631.176178125,339.3L631.23281125,339.3L631.8840921875,327.99L631.9124087499999,320.45L631.9407253125,331.76L632.025675,331.76L632.5636896875,335.53000000000003L633.554769375,335.53000000000003L634.0361509375,309.14000000000004L634.4325828125,335.53000000000003L635.027230625,324.21999999999997L635.31039625,327.99L635.53692875,331.76L635.8200943749999,335.53000000000003L637.2076059375,335.53000000000003L637.4341384375,335.53000000000003L638.3402684375,331.76L638.7367003125,339.3L638.9065996875,335.53000000000003L639.3030315625,331.76L639.557880625,327.99L639.7560965625,335.53000000000003L639.784413125,331.76L639.8976793749999,339.3L640.6055934374999,335.53000000000003L640.8887590625,339.3L641.0020253125,327.99L641.4550903125,331.76L641.8515221875,335.53000000000003L642.8709184375,335.53000000000003L643.0974509375001,331.76L643.408933125,324.21999999999997L644.7964446875,335.53000000000003L644.82476125,324.21999999999997L644.9663440625,327.99L645.73089125,327.99L646.8069206250001,335.53000000000003L649.9500590625,335.53000000000003L650.204908125,339.3L650.657973125,335.53000000000003L650.7429228125,331.76L650.997771875,339.3L651.7906356249999,324.21999999999997L652.75339875,335.53000000000003L652.7817153125001,335.53000000000003L653.036564375,339.3L653.1215140625,339.3L654.22586,331.76L654.9337740625,335.53000000000003L655.415155625,331.76L656.661084375,339.3L657.3406818750001,327.99L657.96364625,335.53000000000003L658.75651,339.3L660.285604375,327.99L660.3705540625,335.53000000000003L661.531533125,335.53000000000003L661.758065625,335.53000000000003L664.0517071875,339.3L664.08002375,335.53000000000003L666.5435646875,327.99L666.7700971875,327.99L668.0443425,327.99L669.74333625,335.53000000000003L671.4706465625001,320.45L671.6688624999999,324.21999999999997L672.4900428125001,335.53000000000003L673.5377556249999,327.99L674.0191371875,324.21999999999997L675.2084328125,327.99L676.5676278125001,335.53000000000003L677.7002903125,331.76L678.408204375,324.21999999999997L678.9462190625001,320.45L679.087801875,320.45L679.7390828125,335.53000000000003L679.880665625,339.3L680.0222484375,339.3L680.3620471875,335.53000000000003L680.956695,335.53000000000003L682.2875734375,320.45L682.88222125,331.76L683.9299340625,331.76L684.3829990625,327.99L686.0253596875,316.68L687.0730725,335.53000000000003L687.2712884375001,327.99L687.3845546875,324.21999999999997L688.09246875,327.99L688.828699375,327.99L691.207290625,335.53000000000003L691.3488734375001,339.3L692.7647015625,316.68L693.3310328125,339.3L693.75578125,320.45L693.8407309375,324.21999999999997L694.4636953125,339.3L694.6335946875,331.76L695.284875625,327.99L695.9927896875,331.76L696.0494228125,339.3L696.417538125,335.53000000000003L697.550200625,335.53000000000003L697.7201,294.06L698.1165318750001,327.99L698.4280140625,324.21999999999997L698.6828631249999,331.76L699.985425,339.3L700.1836409375,305.37L700.2969071875,324.21999999999997L700.4668065625,324.21999999999997L702.13748375,324.21999999999997L702.9020309375001,331.76L703.553311875,305.37L705.53547125,324.21999999999997L705.818636875,331.76L706.1584356249999,327.99L707.0928821875,335.53000000000003L707.3194146875001,320.45L707.57426375,324.21999999999997L707.7724796875,331.76L708.9051421875,327.99L709.2732575,335.53000000000003L709.4148403124999,327.99L709.5847396874999,327.99L709.6696893750001,324.21999999999997L711.821748125,327.99L711.8500646875,324.21999999999997L711.9066978125,327.99L713.0959934374999,339.3L713.1809431249999,327.99L714.0587565625,339.3L714.6817209375,312.90999999999997L714.82330375,320.45L714.9082534375001,324.21999999999997L715.0498362500001,339.3L716.2108153125,316.68L716.6355637500001,331.76L717.0603121875,320.45L717.31516125,331.76L717.371794375,324.21999999999997L717.9098090624999,320.45L718.4761403125,327.99L718.7593059375,327.99L719.1557378125,335.53000000000003L720.316716875,320.45L720.3733500000001,305.37L720.996314375,327.99L721.6475953125,316.68L722.8085743749999,320.45L723.1766896875,331.76L723.20500625,339.3L723.7430209375,320.45L723.7713375,339.3L723.827970625,327.99L723.9695534375,335.53000000000003L724.2810356250001,335.53000000000003L726.3481446875,312.90999999999997L727.3958575,327.99L727.4241740625,327.99L727.905555625,324.21999999999997L728.018821875,316.68L729.0665346874999,324.21999999999997L729.944348125,331.76L729.9726646875,320.45L730.057614375,324.21999999999997L730.0859309375,309.14000000000004L731.0486940625,331.76L731.190276875,286.52L731.4451259374999,320.45L732.1247234375,324.21999999999997L733.05917,339.3L733.7387675,335.53000000000003L733.7670840625001,324.21999999999997L734.7864803125,335.53000000000003L735.8625096874999,324.21999999999997L736.9951721875,324.21999999999997L737.1650715625,316.68L737.2217046875,327.99L737.2500212499999,335.53000000000003L738.1278346875,327.99L738.38268375,324.21999999999997L738.4959499999999,320.45L740.30821,327.99L742.1487865624999,305.37L742.8000675,297.83000000000004L743.2531325,339.3L745.1786587500001,320.45L745.2636084374999,335.53000000000003L745.4051912499999,309.14000000000004L747.3024009374999,324.21999999999997L747.8120990625,339.3L749.9358412500001,271.44L751.0401871875,316.68L751.0685037499999,297.83000000000004L752.8524471874999,331.76L753.2205625,339.3L753.5320446875,294.06L754.636390625,339.3L755.0328225,324.21999999999997L755.5142040625,316.68L755.8823193750001,335.53000000000003L756.7034996875001,294.06L756.73181625,331.76L757.8927953125,312.90999999999997L758.5723928125001,335.53000000000003L758.7422921875001,282.75L759.3086234375,339.3L759.4785228125,327.99L760.073170625,331.76L760.24307,278.98L761.5739484375,312.90999999999997L761.94206375,335.53000000000003L763.6127409375,312.90999999999997L764.5188709375,324.21999999999997L764.7170868750001,294.06L767.095678125,301.6L767.662009375,275.21L770.77683125,339.3L771.4847453125001,339.3L771.5413784374999,335.53000000000003L771.852860625,327.99L772.6174078124999,309.14000000000004L772.81562375,324.21999999999997L773.1271059375,305.37L773.26868875,316.68L773.4669046875,339.3L773.49522125,286.52L773.891653125,331.76L774.684516875,316.68L776.383510625,290.29L776.6383596875,294.06L776.723309375,327.99L777.6860725,320.45L777.9126050000001,316.68L778.8470515625,335.53000000000003L778.9036846874999,312.90999999999997L779.0452674999999,278.98L779.9513975000001,335.53000000000003L780.4894121875,331.76L782.5282046875,320.45L782.5848378125,320.45L782.9812696874999,305.37L783.9440328124999,316.68L786.011141875,335.53000000000003L786.2093578125,297.83000000000004L786.5491565625,297.83000000000004L787.936668125,335.53000000000003L787.9933012500001,324.21999999999997L788.3047834375001,327.99L788.3331,305.37L788.4746828125,312.90999999999997L790.2869428125,331.76L790.881590625,335.53000000000003L790.9665403125001,327.99L790.994856875,324.21999999999997L791.6461378125,324.21999999999997L795.129075,339.3L795.24234125,320.45L795.2706578125,339.3L795.752039375,301.6L796.1767878124999,327.99L796.4599534375001,320.45L796.7714356250001,312.90999999999997L796.9130184375,312.90999999999997L796.9413350000001,335.53000000000003L797.05460125,331.76L797.1678674999999,331.76L797.3377668749999,294.06L798.017364375,327.99L798.30053,324.21999999999997L799.0367606249999,301.6L799.09339375,339.3L799.3482428125,331.76L800.3110059375,335.53000000000003L800.962286875,297.83000000000004L801.92505,320.45L802.4064315625001,312.90999999999997L803.0860290625,327.99L803.6240437499999,339.3L804.020475625,331.76L804.9549221875001,305.37L808.15469375,339.3L809.5422053125,331.76L811.2695156249999,301.6L811.835846875,339.3L812.1473290625,297.83000000000004L812.7136603125,327.99L814.4126540624999,309.14000000000004L814.780769375,335.53000000000003L815.8284821875,324.21999999999997L816.3948134375,294.06L816.706295625,339.3L819.1415199999999,324.21999999999997L819.424685625,335.53000000000003L821.8882265625,294.06L823.4173209375,327.99L824.46503375,252.58999999999997L824.5216668749999,335.53000000000003L825.3428471875001,324.21999999999997L826.447193125,271.44L827.806388125,331.76L829.1655831250001,327.99L829.22221625,335.53000000000003L829.44874875,294.06L830.2982456249999,327.99L830.864576875,275.21L830.9495265625,297.83000000000004L831.3459584375,331.76L832.9600025,331.76L834.942161875,282.75" style="fill: none;" fill="none"></path></g></g></g></g></g></g><g transform="translate(41, 377)" clip-path="url(#clip_1)"><clipPath id="clip_1"><rect width="1415" height="23"></rect></clipPath><g><g><line x1="0" y1="0" x2="0" y2="5" style="visibility: inherit;" fill="rgb(0, 0, 0)" stroke="rgb(204, 204, 204)" stroke-width="1px"></line><line x1="141.58281250000002" y1="0" x2="141.58281250000002" y2="5" style="visibility: inherit;" fill="rgb(0, 0, 0)" stroke="rgb(204, 204, 204)" stroke-width="1px"></line><line x1="283.16562500000003" y1="0" x2="283.16562500000003" y2="5" style="visibility: inherit;" fill="rgb(0, 0, 0)" stroke="rgb(204, 204, 204)" stroke-width="1px"></line><line x1="424.74843749999997" y1="0" x2="424.74843749999997" y2="5" style="visibility: inherit;" fill="rgb(0, 0, 0)" stroke="rgb(204, 204, 204)" stroke-width="1px"></line><line x1="566.3312500000001" y1="0" x2="566.3312500000001" y2="5" style="visibility: inherit;" fill="rgb(0, 0, 0)" stroke="rgb(204, 204, 204)" stroke-width="1px"></line><line x1="707.9140625" y1="0" x2="707.9140625" y2="5" style="visibility: inherit;" fill="rgb(0, 0, 0)" stroke="rgb(204, 204, 204)" stroke-width="1px"></line><line x1="849.4968749999999" y1="0" x2="849.4968749999999" y2="5" style="visibility: inherit;" fill="rgb(0, 0, 0)" stroke="rgb(204, 204, 204)" stroke-width="1px"></line><line x1="991.0796875" y1="0" x2="991.0796875" y2="5" style="visibility: inherit;" fill="rgb(0, 0, 0)" stroke="rgb(204, 204, 204)" stroke-width="1px"></line><line x1="1132.6625000000001" y1="0" x2="1132.6625000000001" y2="5" style="visibility: inherit;" fill="rgb(0, 0, 0)" stroke="rgb(204, 204, 204)" stroke-width="1px"></line><line x1="1274.2453125" y1="0" x2="1274.2453125" y2="5" style="visibility: inherit;" fill="rgb(0, 0, 0)" stroke="rgb(204, 204, 204)" stroke-width="1px"></line><line x1="1415.828125" y1="0" x2="1415.828125" y2="5" style="visibility: inherit;" fill="rgb(0, 0, 0)" stroke="rgb(204, 204, 204)" stroke-width="1px"></line></g><g transform="translate(0, 8)"><text x="0" y="0" dx="0em" dy="0.95em" style="text-anchor: middle; visibility: hidden; font-family: Roboto, sans-serif; font-size: 12px; font-weight: 200;" fill="rgb(255, 255, 255)" stroke="none" stroke-width="1px">-5k</text><text x="141.58281250000002" y="0" dx="0em" dy="0.95em" style="text-anchor: middle; visibility: inherit; font-family: Roboto, sans-serif; font-size: 12px; font-weight: 200;" fill="rgb(255, 255, 255)" stroke="none" stroke-width="1px">0</text><text x="283.16562500000003" y="0" dx="0em" dy="0.95em" style="text-anchor: middle; visibility: inherit; font-family: Roboto, sans-serif; font-size: 12px; font-weight: 200;" fill="rgb(255, 255, 255)" stroke="none" stroke-width="1px">5k</text><text x="424.74843749999997" y="0" dx="0em" dy="0.95em" style="text-anchor: middle; visibility: inherit; font-family: Roboto, sans-serif; font-size: 12px; font-weight: 200;" fill="rgb(255, 255, 255)" stroke="none" stroke-width="1px">10k</text><text x="566.3312500000001" y="0" dx="0em" dy="0.95em" style="text-anchor: middle; visibility: inherit; font-family: Roboto, sans-serif; font-size: 12px; font-weight: 200;" fill="rgb(255, 255, 255)" stroke="none" stroke-width="1px">15k</text><text x="707.9140625" y="0" dx="0em" dy="0.95em" style="text-anchor: middle; visibility: inherit; font-family: Roboto, sans-serif; font-size: 12px; font-weight: 200;" fill="rgb(255, 255, 255)" stroke="none" stroke-width="1px">20k</text><text x="849.4968749999999" y="0" dx="0em" dy="0.95em" style="text-anchor: middle; visibility: inherit; font-family: Roboto, sans-serif; font-size: 12px; font-weight: 200;" fill="rgb(255, 255, 255)" stroke="none" stroke-width="1px">25k</text><text x="991.0796875" y="0" dx="0em" dy="0.95em" style="text-anchor: middle; visibility: inherit; font-family: Roboto, sans-serif; font-size: 12px; font-weight: 200;" fill="rgb(255, 255, 255)" stroke="none" stroke-width="1px">30k</text><text x="1132.6625000000001" y="0" dx="0em" dy="0.95em" style="text-anchor: middle; visibility: inherit; font-family: Roboto, sans-serif; font-size: 12px; font-weight: 200;" fill="rgb(255, 255, 255)" stroke="none" stroke-width="1px">35k</text><text x="1274.2453125" y="0" dx="0em" dy="0.95em" style="text-anchor: middle; visibility: inherit; font-family: Roboto, sans-serif; font-size: 12px; font-weight: 200;" fill="rgb(255, 255, 255)" stroke="none" stroke-width="1px">40k</text><text x="1415.828125" y="0" dx="0em" dy="0.95em" style="text-anchor: middle; visibility: hidden; font-family: Roboto, sans-serif; font-size: 12px; font-weight: 200;" fill="rgb(255, 255, 255)" stroke="none" stroke-width="1px">45k</text></g><line x1="0" y1="0" x2="1415.828125" y2="0" fill="rgb(0, 0, 0)" stroke="rgb(204, 204, 204)" stroke-width="1px"></line></g></g></g></g></svg>